<?xml version="1.0" encoding="utf-8"?>
<!-- Generator: Adobe Illustrator 22.1.0, SVG Export Plug-In . SVG Version: 6.00 Build 0)  -->
<svg version="1.1" id="Ebene_1" xmlns="http://www.w3.org/2000/svg" xmlns:xlink="http://www.w3.org/1999/xlink" x="0px" y="0px"
	 viewBox="0 0 2128 1120" enable-background="new 0 0 2128 1120" xml:space="preserve">
<g>
	<path d="M315,516v201H35V516H315 M316,515H34v203h282V515L316,515z"/>
</g>
<g>
	<line fill="none" stroke="#000000" stroke-miterlimit="10" x1="34.5" y1="554.5" x2="315.5" y2="554.5"/>
</g>
<circle fill-rule="evenodd" clip-rule="evenodd" fill="#F3514E" stroke="#000000" stroke-miterlimit="10" cx="292.5" cy="534.5" r="7"/>
<circle fill-rule="evenodd" clip-rule="evenodd" fill="#F0AA42" stroke="#000000" stroke-miterlimit="10" cx="270.5" cy="534.5" r="7"/>
<circle fill-rule="evenodd" clip-rule="evenodd" fill="#6AB748" stroke="#000000" stroke-miterlimit="10" cx="249.5" cy="534.5" r="7"/>
<g>
	<path fill="#FFFFFF" d="M57,541.5c-3.6,0-6.5-2.9-6.5-6.5s2.9-6.5,6.5-6.5h150c3.6,0,6.5,2.9,6.5,6.5s-2.9,6.5-6.5,6.5H57z"/>
	<path d="M207,529c3.3,0,6,2.7,6,6s-2.7,6-6,6H57c-3.3,0-6-2.7-6-6s2.7-6,6-6H207 M207,528H57c-3.9,0-7,3.2-7,7s3.1,7,7,7h150
		c3.9,0,7-3.2,7-7S210.9,528,207,528L207,528z"/>
</g>
<g>
	<rect x="61.5" y="583.5" fill="#FFFFFF" width="94" height="94"/>
	<path d="M155,584v93H62v-93H155 M156,583H61v95h95V583L156,583z"/>
</g>
<rect x="175" y="583" fill-rule="evenodd" clip-rule="evenodd" fill="#333333" width="110" height="3"/>
<rect x="175" y="592" fill-rule="evenodd" clip-rule="evenodd" fill="#333333" width="110" height="3"/>
<rect x="175" y="601" fill-rule="evenodd" clip-rule="evenodd" fill="#333333" width="110" height="3"/>
<rect x="175" y="610" fill-rule="evenodd" clip-rule="evenodd" fill="#333333" width="110" height="3"/>
<rect x="175" y="643" fill-rule="evenodd" clip-rule="evenodd" fill="#333333" width="64" height="3"/>
<rect x="175" y="627" fill-rule="evenodd" clip-rule="evenodd" fill="#333333" width="110" height="3"/>
<rect x="175" y="635" fill-rule="evenodd" clip-rule="evenodd" fill="#333333" width="110" height="3"/>
<path fill="#9D5025" d="M1276.3,1040.1l13.2,6.6l2.2-3.8V890.2l-2.2-2.8l-13.2,6.6V1040.1"/>
<path fill="#F68536" d="M1314.7,893.6l-25.3-6.2v159.3l25.3-5.9V893.6"/>
<path fill="#6B3A19" d="M1392.3,905.7l18-9.4l59.9,23.2l-15.9,2.1L1392.3,905.7"/>
<path fill="#FBBF93" d="M1393,1028.3l17.7,9.4l59.9-23.2l-15.9-2.1L1393,1028.3"/>
<path fill="#9D5025" d="M1397.5,1002.7l31.5,4.2l1.8-3.2V931l-1.8-3.8l-31.5,4.2V1002.7 M1305,879.4l19.4-9.7l2.1,4.1v186.3
	l-2.1,4.3l-19.4-9.7V879.4"/>
<path fill="#F68536" d="M1363.9,1051.2l-39.5,12.8V869.7l39.5,12.8V1051.2"/>
<path fill="#9D5025" d="M1348.7,1076.1l30.8,15.6l3.2-3.7V846.9l-3.2-4.6l-30.8,15.6V1076.1 M1453.6,921.6l15.9-2.1l1.4,2v90.9
	l-1.4,2.3l-15.9-2.1V921.6"/>
<path fill="#F68536" d="M1429,927.2v80l32.9-40.2L1429,927.2"/>
<path fill="#F68536" d="M1469.6,887.4l-90.1-45v249.4l103.2-51.6V893.9L1469.6,887.4z M1469.6,1014.9l-59.2,17.7V901.4l59.2,17.7
	V1014.9z"/>
<path fill="#634B1E" d="M883.7,954.6l-50.1,2.1l-32.5-2.1l53.7-5.2L883.7,954.6"/>
<path fill="#D9A740" d="M854.7,951.7l29,2.9v-58.4l-29-14.5l-2.2,2.4v65.1L854.7,951.7"/>
<path fill="#886A2A" d="M801.1,896.1l53.6-14.5v70l-53.6,2.9V896.1"/>
<path fill="#634B1E" d="M677.3,954.6l50.1,2.1l32.5-2.1l-53.6-5.7L677.3,954.6"/>
<path fill="#886A2A" d="M706.3,951.7l-29,2.8v-58.6l29-14.5l1.3,2.5v65.5L706.3,951.7"/>
<path fill="#D9A740" d="M759.9,896.1l-53.6-14.5v70l53.6,2.9V896.1"/>
<g>
	<path fill="#FAD791" d="M883.7,984.8l-50.1-2.1l-32.5,2.1l53.5,5.4L883.7,984.8"/>
	<path fill="#D9A740" d="M854.7,987.7l29-2.9v58.4l-29,14.5l-1.5-3.3v-63.7L854.7,987.7"/>
	<path fill="#886A2A" d="M801.1,1043.2l53.6,14.5v-70l-53.6-2.9V1043.2"/>
</g>
<g>
	<path fill="#FAD791" d="M677.3,984.8l50.1-2.1l32.5,2.1l-54,5.9L677.3,984.8"/>
	<path fill="#886A2A" d="M706.3,987.7l-29-2.9v58.4l29,14.5l1.8-2.6v-64.4L706.3,987.7"/>
	<path fill="#D9A740" d="M759.9,1043.2l-53.6,14.5v-70l53.6-2.9V1043.2"/>
</g>
<g>
	<path fill="#634B1E" d="M754.3,930l26.6-4.7l53.1,7.5l4.6,2.6l-25.8,2.8L754.3,930"/>
	<path fill="#634B1E" d="M806.7,930l-26.6-4.7l-55.4,8.6l-2.3,1.6l25.8,2.8L806.7,930"/>
	<path fill="#FAD791" d="M754.3,1009.3l26.6,4.7l52.9-7.4l4.7-2.7l-25.8-2.8L754.3,1009.3"/>
	<path fill="#FAD791" d="M806.7,1009.3l-26.6,4.7l-55.8-7.9l-1.9-2.2l25.8-2.8L806.7,1009.3"/>
	<path fill="#D9A740" d="M838.6,935.5v-28.9l-27.2-8.9V860l-30.9-15.4v0l-1.3,2.1l-0.2,244l1.5,3.1l30.9-15.4v-36.8l27.2-8.9v-28.9
		l-27.2,4.8v-77.9L838.6,935.5"/>
	<path fill="#886A2A" d="M749.6,860v37.8l-27.2,8.9v28.9l27.2-4.8v77.9l-27.2-4.8v28.9l27.2,8.9v36.8l30.9,15.4V844.6L749.6,860"/>
</g>
<g>
	<path d="M663.6,784.5h4.1l13,34.1h-6.9l-8.2-23.3l-8.2,23.3h-6.9L663.6,784.5z M656.8,806.9h17.9v6.2h-17.9V806.9z"/>
	<path d="M684.9,784.5h6.4v34.1h-6.4V784.5z M687.8,799.2h10.9c0.8,0,1.4-0.2,2-0.5s1-0.8,1.4-1.5s0.5-1.4,0.5-2.2
		c0-0.8-0.2-1.6-0.5-2.2s-0.8-1.1-1.4-1.5s-1.3-0.5-2.1-0.5h-10.9v-6.2h10.7c2.1,0,4,0.4,5.6,1.3s2.9,2.1,3.8,3.7s1.3,3.4,1.3,5.5
		s-0.4,3.9-1.3,5.5s-2.1,2.8-3.8,3.6s-3.5,1.3-5.6,1.3h-10.7V799.2z"/>
	<path d="M721,818.6h-6.7v-34.1h6.7V818.6z"/>
	<path d="M760.5,799.5v6.7c0,2.5-0.5,4.8-1.5,6.7s-2.5,3.4-4.3,4.5s-4,1.6-6.5,1.6c-2.5,0-4.7-0.5-6.6-1.5s-3.4-2.4-4.4-4.2
		s-1.6-3.9-1.6-6.3v-10.1c0-2.5,0.5-4.8,1.5-6.7s2.5-3.4,4.3-4.5s4-1.6,6.5-1.6c2,0,3.9,0.4,5.6,1.3s3.2,2,4.3,3.6s1.9,3.3,2.3,5.3
		h-6.9c-0.2-0.7-0.6-1.3-1.2-1.9s-1.2-0.9-1.9-1.2s-1.5-0.4-2.3-0.4c-1.1,0-2.1,0.3-3,0.8s-1.5,1.2-2,2.1s-0.7,2-0.7,3.2v10.1
		c0,1.1,0.2,2,0.7,2.8s1.2,1.4,2.1,1.9s1.9,0.7,3.1,0.7c1.2,0,2.2-0.2,3-0.7s1.5-1.2,2-2.1s0.7-2,0.7-3.2v-0.6h-5.2v-6.2H760.5z"/>
	<path d="M767.5,817.1c-1.3-1.2-1.9-3.1-1.9-5.7c0-2.4,0.7-4.2,2.2-5.4s3.6-1.8,6.5-1.8h6.1l0.3,4.9h-6.4c-1,0-1.7,0.2-2.2,0.6
		s-0.7,1-0.7,1.7c0,0.8,0.3,1.4,0.9,1.8s1.5,0.6,2.8,0.6c1.7,0,3-0.2,3.8-0.6s1.3-1,1.3-1.8l0.5,3.5c-0.1,0.9-0.5,1.6-1.2,2.2
		s-1.6,1.1-2.7,1.4s-2.2,0.5-3.4,0.5C770.8,818.9,768.8,818.3,767.5,817.1z M780.2,803.2c0-1.1-0.4-2-1.1-2.6s-1.8-0.9-3.2-0.9
		c-0.9,0-1.8,0.1-2.7,0.4s-1.7,0.7-2.4,1.2l-4-3.9c1-1.1,2.3-2,3.8-2.6s3.4-0.9,5.3-0.9c2.1,0,3.9,0.4,5.4,1.1s2.6,1.7,3.4,3.1
		s1.2,3,1.2,4.9v15.6h-5.8V803.2z"/>
	<path d="M790.5,794.3h11.9v5.5h-11.9V794.3z M794.5,817.1c-1-1.1-1.5-2.7-1.5-4.8v-25.1h6.4v23.5c0,0.6,0.1,1.1,0.4,1.4
		s0.6,0.5,1,0.5h1.6v6.2h-3.2C797,818.7,795.4,818.2,794.5,817.1z"/>
	<path d="M814.9,818.9c0,0-0.8-0.4-2.5-1.3s-2.9-2.1-3.8-3.7s-1.3-3.6-1.3-5.9v-2.7c0-2.4,0.4-4.5,1.3-6.2s2.1-3,3.7-3.9
		s3.5-1.3,5.8-1.3c2.1,0,3.9,0.5,5.5,1.6s2.7,2.6,3.5,4.6s1.2,4.5,1.2,7.3v1.6h-16.6v-4.3h10.8l-0.1-0.6c-0.2-1.4-0.6-2.5-1.3-3.3
		s-1.7-1.1-2.8-1.1c-1.5,0-2.7,0.5-3.6,1.4s-1.3,2.2-1.3,3.9v3.1c0,1.7,0.5,2.9,1.4,3.8s2.2,1.4,3.9,1.4c0.9,0,1.7-0.2,2.6-0.5
		s1.6-0.7,2.3-1.3l4.2,3.7c-1.3,1.2-2.7,2.1-4.3,2.7s-3.2,0.9-4.8,0.9C816.1,818.9,814.9,818.9,814.9,818.9z"/>
	<path d="M831.1,794.3h6.2l4.3,15l5.1-15h3.8l5.1,15l4.3-15h6.2l-7.5,24.3h-4.8l-5.2-15.9l-5.2,15.9h-4.8L831.1,794.3z"/>
	<path d="M871.1,817.1c-1.3-1.2-1.9-3.1-1.9-5.7c0-2.4,0.7-4.2,2.2-5.4s3.6-1.8,6.5-1.8h6.1l0.3,4.9h-6.4c-1,0-1.7,0.2-2.2,0.6
		s-0.7,1-0.7,1.7c0,0.8,0.3,1.4,0.9,1.8s1.5,0.6,2.8,0.6c1.7,0,3-0.2,3.8-0.6s1.3-1,1.3-1.8l0.5,3.5c-0.1,0.9-0.5,1.6-1.2,2.2
		s-1.6,1.1-2.7,1.4s-2.2,0.5-3.4,0.5C874.4,818.9,872.4,818.3,871.1,817.1z M883.8,803.2c0-1.1-0.4-2-1.1-2.6s-1.8-0.9-3.2-0.9
		c-0.9,0-1.8,0.1-2.7,0.4s-1.7,0.7-2.4,1.2l-4-3.9c1-1.1,2.3-2,3.8-2.6s3.4-0.9,5.3-0.9c2.1,0,3.9,0.4,5.4,1.1s2.6,1.7,3.4,3.1
		s1.2,3,1.2,4.9v15.6h-5.8V803.2z"/>
	<path d="M892.6,794.3h6l8.2,21.1l-4.1,5.2L892.6,794.3z M915.1,794.3l-10.8,30c-0.4,1.1-0.9,2-1.5,2.6s-1.3,1.1-2.2,1.4
		s-2,0.4-3.3,0.4h-1.4v-6.2h1.4c0.7,0,1.3-0.2,1.7-0.5s0.8-0.8,1-1.5l9-26.3H915.1z"/>
</g>
<g>
	<path d="M1295.8,784.9h6.4V819h-6.4V784.9z M1298.6,812.8h20v6.2h-20V812.8z"/>
	<path d="M1323.6,817.5c-1.3-1.2-1.9-3.1-1.9-5.7c0-2.4,0.7-4.2,2.2-5.4s3.6-1.8,6.5-1.8h6.1l0.3,4.9h-6.4c-1,0-1.7,0.2-2.2,0.6
		s-0.7,1-0.7,1.7c0,0.8,0.3,1.4,0.9,1.8s1.5,0.6,2.8,0.6c1.7,0,3-0.2,3.8-0.6s1.3-1,1.3-1.8l0.5,3.5c-0.1,0.9-0.5,1.6-1.2,2.2
		s-1.6,1.1-2.7,1.4s-2.2,0.5-3.4,0.5C1326.8,819.4,1324.8,818.7,1323.6,817.5z M1336.2,803.6c0-1.1-0.4-2-1.1-2.6s-1.8-0.9-3.2-0.9
		c-0.9,0-1.8,0.1-2.7,0.4s-1.7,0.7-2.4,1.2l-4-3.9c1-1.1,2.3-2,3.8-2.6s3.4-0.9,5.3-0.9c2.1,0,3.9,0.4,5.4,1.1s2.6,1.7,3.4,3.1
		s1.2,3,1.2,4.9V819h-5.8V803.6z"/>
	<path d="M1348.3,794.7h6.4V819h-6.4V794.7z M1362.5,805c0-1.4-0.4-2.5-1.1-3.3s-1.7-1.2-3-1.2c-1.2,0-2.1,0.3-2.8,1s-1,1.6-1,2.8
		l-0.5-5.4c0.7-1.5,1.6-2.6,2.7-3.4s2.3-1.2,3.8-1.2c1.7,0,3.2,0.4,4.4,1.2s2.2,2,2.8,3.6s1,3.5,1,5.7V819h-6.4V805z M1376.7,805
		c0-1.4-0.3-2.5-1-3.3s-1.6-1.2-2.9-1.2c-1.2,0-2.2,0.4-2.8,1.1s-1,1.8-1,3.2l-1.2-5.6c0.8-1.5,1.8-2.7,3-3.6s2.6-1.3,4.1-1.3
		c1.8,0,3.2,0.4,4.5,1.2s2.2,2,2.8,3.6s1,3.5,1,5.7V819h-6.4V805z"/>
	<path d="M1389.5,784.9h6.4V819h-6.4V784.9z M1397.8,818.3c-1-0.7-1.8-1.8-2.3-3.1l0.3-5.6c0,0.8,0.1,1.5,0.4,2s0.7,1,1.2,1.3
		s1.2,0.4,2,0.4c1.2,0,2.1-0.4,2.8-1.2s1-1.9,1-3.4V805c0-1.5-0.3-2.6-1-3.5s-1.6-1.2-2.8-1.2c-0.8,0-1.4,0.2-2,0.5
		s-0.9,0.7-1.2,1.3s-0.4,1.3-0.4,2.1l-0.5-5.4c0.7-1.4,1.5-2.5,2.6-3.3s2.3-1.2,3.6-1.2c1.7,0,3.2,0.4,4.4,1.2s2.2,2,2.8,3.6
		s1,3.5,1,5.7v3.9c0,2.2-0.3,4.1-1,5.7s-1.6,2.8-2.8,3.6s-2.7,1.2-4.4,1.2C1400.1,819.4,1398.9,819,1397.8,818.3z"/>
	<path d="M1418.6,818.1c-1.2-0.8-2.2-2-2.8-3.6s-1-3.5-1-5.7v-3.9c0-2.2,0.3-4.1,1-5.7s1.6-2.8,2.8-3.6s2.7-1.2,4.4-1.2
		c1.3,0,2.5,0.4,3.6,1.2s1.9,1.9,2.6,3.3l-0.5,5.4c0-0.8-0.1-1.5-0.4-2.1s-0.7-1-1.2-1.3s-1.2-0.5-2-0.5c-1.2,0-2.1,0.4-2.8,1.2
		s-1,2-1,3.5v3.9c0,1.5,0.3,2.6,1,3.4s1.6,1.2,2.8,1.2c0.8,0,1.4-0.1,2-0.4s0.9-0.7,1.2-1.3s0.4-1.2,0.4-2l0.3,5.6
		c-0.5,1.3-1.3,2.4-2.3,3.1s-2.3,1.1-3.7,1.1C1421.3,819.4,1419.8,818.9,1418.6,818.1z M1428.7,784.9h6.4V819h-6.4V784.9z"/>
	<path d="M1442.2,817.5c-1.3-1.2-1.9-3.1-1.9-5.7c0-2.4,0.7-4.2,2.2-5.4s3.6-1.8,6.5-1.8h6.1l0.3,4.9h-6.4c-1,0-1.7,0.2-2.2,0.6
		s-0.7,1-0.7,1.7c0,0.8,0.3,1.4,0.9,1.8s1.5,0.6,2.8,0.6c1.7,0,3-0.2,3.8-0.6s1.3-1,1.3-1.8l0.5,3.5c-0.1,0.9-0.5,1.6-1.2,2.2
		s-1.6,1.1-2.7,1.4s-2.2,0.5-3.4,0.5C1445.4,819.4,1443.5,818.7,1442.2,817.5z M1454.8,803.6c0-1.1-0.4-2-1.1-2.6s-1.8-0.9-3.2-0.9
		c-0.9,0-1.8,0.1-2.7,0.4s-1.7,0.7-2.4,1.2l-4-3.9c1-1.1,2.3-2,3.8-2.6s3.4-0.9,5.3-0.9c2.1,0,3.9,0.4,5.4,1.1s2.6,1.7,3.4,3.1
		s1.2,3,1.2,4.9V819h-5.8V803.6z"/>
</g>
<path fill="#8C3123" d="M1290.9,134.2l-16.6,8.3v146l16.6,8.3l0.1-0.1V134.3L1290.9,134.2"/>
<path fill="#E05243" d="M1379.9,275.6l-89,21.2V134.2l89,20.7V275.6"/>
<path fill="#8C3123" d="M1339.7,242.4l37.8,4.8l0.2-0.5l0.2-61.9l-0.4-0.5l-37.8,4.7V242.4"/>
<path fill="#8C3123" d="M1377.5,275.8l86.6,21l0.1-0.2l0-162.3l-0.1-0.1l-86.6,21V275.8"/>
<path fill="#E05243" d="M1415.3,242.4l-37.8,4.8v-62.9l37.8,4.7V242.4"/>
<path fill="#5E1F18" d="M1415.3,163.2l-37.8,6.9l-37.8-6.9l37.7-9.9L1415.3,163.2"/>
<path fill="#F2B0A9" d="M1415.3,268.2l-37.8-6.9l-37.8,6.9l37.7,10.5L1415.3,268.2"/>
<path fill="#8C3123" d="M1339.7,163.2l37.8-9.3l0.3-0.1V91.2l-0.3-0.3l-37.8,18.9V163.2"/>
<path fill="#E05243" d="M1415.3,163.2l-37.8-9.3V90.9l37.8,18.9V163.2"/>
<path fill="#8C3123" d="M1377.5,340.5l-37.8-18.9v-53.4l37.8,9.3l0.6,0.6l-0.2,61.2L1377.5,340.5"/>
<path fill="#E05243" d="M1377.5,340.5l37.8-18.9v-53.4l-37.8,9.3V340.5 M1464.1,134.2l16.6,8.3v146l-16.6,8.3V134.2"/>
<path fill="#5E1F18" d="M810.9,403.1l48.1-5.1l24.9,5.2l0.1,0.1L838,406L810.9,403.1L810.9,403.1L810.9,403.1z"/>
<path fill="#8C3123" d="M810.8,403.2l48.1-3.8l0.3-0.5l0-59.3l-0.3-0.7l-48.1,12.5V403.2"/>
<path fill="#E05243" d="M883.9,403.2l-25-3.8l0-60.4l25,12.5L883.9,403.2"/>
<path fill="#F2B0A9" d="M810.8,445.9l0.7,0.5l47.4,3.2l24.2-3.2l0.9-0.5l-45.9-2.8L810.8,445.9"/>
<path fill="#8C3123" d="M810.8,445.9l48.1,3.6l0.1,0.2l0,60l-0.1,0.3l-48.1-12.4V445.9"/>
<path fill="#E05243" d="M883.9,445.9l-25,3.6l0,60.5l25-12.4V445.9"/>
<g>
	<path fill="#5E1F18" d="M748.4,403.1l-47.5-4.1l-24.7,4.1l-0.2,0.1L722,406l26.7-2.7L748.4,403.1L748.4,403.1z"/>
	<path fill="#8C3123" d="M676.1,403.2l24.8-3.6l0.7-0.5v-59.4l-0.7-0.7l-24.8,12.5V403.2"/>
	<path fill="#E05243" d="M748.7,403.2l-47.8-3.6V339l47.8,12.5L748.7,403.2"/>
</g>
<g>
	<path fill="#F2B0A9" d="M748.7,445.9l-1.1,0.8l-46.7,3.5l-24-3.5l-0.8-0.8l45.9-2.8L748.7,445.9"/>
	<path fill="#8C3123" d="M676.1,445.9l24.8,3.5l0.6,0.8l0.1,58.7l-0.7,1.1l-24.8-12.4L676.1,445.9"/>
	<path fill="#E05243" d="M748.7,445.9l-47.8,3.5l0,60.6l47.8-12.4V445.9"/>
</g>
<g>
	<path fill="#F2B0A9" d="M829.6,453.6l-49.6-4.9l-50.1,4.9l0.7,0.6l49.1,7.8l49.1-7.8L829.6,453.6"/>
	<path fill="#8C3123" d="M729.9,453.6l49.8,7.3l0.5,0.7l0.1,86.8l-0.6,1l-49.8-24.9V453.6"/>
	<path fill="#E05243" d="M829.6,453.6l-49.8,7.3v88.5l49.8-24.9L829.6,453.6"/>
</g>
<g>
	<path fill="#5E1F18" d="M780,400.3l-50.1-4.8l0.1-0.1l49.7-7.7l49.7,7.7l0.2,0.1L780,400.3z"/>
	<path fill="#8C3123" d="M729.9,395.4l49.8-7.3l0.2-0.2l-0.1-88.1l-0.1-0.1l-49.8,24.9V395.4"/>
	<path fill="#E05243" d="M829.6,395.4l-49.8-7.3v-88.5l49.8,24.9V395.4"/>
</g>
<rect x="34.5" y="717.5" fill="none" stroke="#000000" stroke-miterlimit="10" width="281" height="68"/>
<g>
	<path d="M119.2,736.4h3.6V762h-3.6V736.4z M120.7,747.8h8.7c0.7,0,1.3-0.2,1.8-0.5s0.9-0.8,1.2-1.4s0.4-1.3,0.4-2.1
		s-0.1-1.5-0.4-2.1s-0.7-1.1-1.2-1.4s-1.1-0.5-1.8-0.5h-8.7v-3.4h8.6c1.5,0,2.8,0.3,3.9,0.9s2,1.5,2.6,2.6s0.9,2.4,0.9,3.9
		s-0.3,2.8-0.9,3.9s-1.5,2-2.6,2.6s-2.4,0.9-3.9,0.9h-8.6V747.8z M127.7,750.4l3.6-0.8l6.5,12.4h-4.3L127.7,750.4z"/>
	<path d="M146.5,762.3c0,0-0.6-0.3-1.8-0.9s-2.1-1.6-2.7-2.8s-0.9-2.7-0.9-4.4V752c0-1.8,0.3-3.3,0.9-4.6s1.5-2.3,2.6-2.9
		s2.5-1,4.1-1c1.5,0,2.8,0.4,3.9,1.1s1.9,1.9,2.5,3.3s0.9,3.2,0.9,5.2v1.2h-12.3v-2.9h8.9c-0.1-1.5-0.5-2.6-1.2-3.5
		s-1.5-1.2-2.7-1.2c-1.4,0-2.4,0.4-3.2,1.3s-1.1,2.2-1.1,3.8v2.3c0,1.5,0.4,2.7,1.2,3.5s1.9,1.2,3.4,1.2c0.7,0,1.4-0.1,2.2-0.4
		s1.4-0.7,1.9-1.2l2.4,2.4c-0.9,0.9-1.9,1.5-3,2s-2.3,0.7-3.4,0.7C147.4,762.3,146.5,762.3,146.5,762.3z"/>
	<path d="M161.7,760.9c-1.1-0.9-1.7-2.3-1.7-4.2c0-1.8,0.5-3.2,1.5-4.1s2.6-1.4,4.6-1.4h5.2l0.2,2.9h-5.4c-0.9,0-1.6,0.2-2.1,0.6
		s-0.7,1.1-0.7,1.9c0,0.9,0.3,1.6,0.9,2.1s1.5,0.7,2.8,0.7c1.4,0,2.4-0.1,3.1-0.4s1-0.8,1-1.4l0.4,2.6c-0.3,0.5-0.7,0.9-1.2,1.2
		s-1,0.6-1.6,0.7s-1.3,0.2-2.1,0.2C164.5,762.3,162.8,761.8,161.7,760.9z M171.2,750.4c0-1.2-0.3-2.1-1-2.8s-1.5-1-2.7-1
		c-0.7,0-1.4,0.1-2.1,0.3s-1.3,0.5-1.9,0.9l-2.6-1.8c0.7-0.8,1.6-1.5,2.7-1.9s2.4-0.7,3.8-0.7c1.5,0,2.8,0.3,3.9,0.8
		s1.9,1.3,2.5,2.3s0.8,2.2,0.8,3.7V762h-3.4V750.4z"/>
	<path d="M184.9,762.3c0,0-0.6-0.3-1.8-0.9s-2.1-1.5-2.7-2.7s-0.9-2.6-0.9-4.3v-3c0-1.7,0.3-3.1,0.9-4.2s1.5-2.1,2.7-2.7
		s2.6-0.9,4.3-0.9c0.9,0,1.8,0.1,2.7,0.3s1.6,0.6,2.3,1s1.2,1,1.7,1.6l-2.6,2.3c-0.5-0.6-1.1-1-1.8-1.4s-1.4-0.5-2.2-0.5
		c-1.4,0-2.5,0.4-3.2,1.2s-1.1,1.9-1.1,3.3v3c0,1.4,0.4,2.6,1.1,3.3s1.8,1.2,3.2,1.2c0.8,0,1.5-0.2,2.2-0.5s1.3-0.8,1.8-1.4l2.6,2.5
		c-0.5,0.6-1,1.1-1.7,1.6s-1.4,0.8-2.3,1s-1.7,0.3-2.7,0.3C185.7,762.3,184.9,762.3,184.9,762.3z"/>
	<path d="M196.6,743.8h8.2v3.2h-8.2V743.8z M199.5,760.9c-0.7-0.8-1-2-1-3.6v-18.8h3.6v18.8c0,0.4,0.1,0.8,0.3,1s0.4,0.4,0.8,0.4
		h1.7v3.4h-2.1C201.2,762.1,200.2,761.7,199.5,760.9z"/>
	<path d="M209.2,758.4h3.6v3.6h-3.6V758.4z"/>
	<path d="M215.4,766h2c0.3,0,0.6-0.1,0.8-0.4s0.3-0.6,0.3-1v-20.9h3.6v20.8c0,1.5-0.4,2.7-1.1,3.6s-1.8,1.3-3.2,1.3h-2.4V766z
		 M218.4,736.4h3.7v3.6h-3.7V736.4z"/>
	<path d="M232.3,762.3c0,0-0.5-0.1-1.4-0.3s-1.8-0.5-2.6-0.9s-1.6-0.9-2.3-1.6l2.1-2.6c1,0.8,2,1.3,2.9,1.7s1.9,0.6,2.9,0.6
		c1.4,0,2.5-0.2,3.2-0.7s1.1-1.1,1.1-2c0-0.6-0.2-1-0.6-1.3s-0.9-0.5-1.4-0.6s-1.4-0.2-2.4-0.3c-0.1,0-0.2,0-0.3,0s-0.2,0-0.3,0
		c0,0-0.1,0-0.1,0s-0.1,0-0.1,0c-1.2-0.1-2.2-0.3-3-0.5s-1.5-0.7-2-1.4s-0.8-1.7-0.8-3s0.3-2.4,0.8-3.2s1.3-1.5,2.4-1.9
		s2.3-0.6,3.9-0.6c0.9,0,1.9,0.1,2.7,0.3s1.7,0.4,2.5,0.8s1.5,0.8,2.3,1.3l-2.2,2.6c-0.9-0.6-1.8-1-2.7-1.3s-1.7-0.4-2.6-0.4
		c-1.2,0-2.1,0.2-2.7,0.6s-0.9,1-0.9,1.9c0,0.5,0.2,0.9,0.5,1.1s0.8,0.4,1.3,0.5s1.3,0.2,2.3,0.2c0.1,0,0.1,0,0.2,0s0.2,0,0.2,0
		c0,0,0.1,0,0.1,0s0.1,0,0.1,0c1.3,0.1,2.4,0.3,3.3,0.5s1.6,0.8,2.3,1.5s0.9,1.9,0.9,3.3c0,1.3-0.3,2.4-0.8,3.3s-1.4,1.5-2.5,1.9
		s-2.6,0.7-4.3,0.7C232.9,762.3,232.3,762.3,232.3,762.3z"/>
</g>
<g>
	<path d="M74.5,605.7H78V627h-3.5V605.7z M76.4,614.8h12.1v3.4H76.4V614.8z M86.4,605.7h3.5V627h-3.5V605.7z"/>
	<path d="M91.9,605.7h15.3v3.4H91.9V605.7z M97.8,607.4h3.5V627h-3.5V607.4z"/>
	<path d="M123.7,605.7h4V627h-3.3v-16.2l0.1,0.9l-4.7,12.6h-2.8l-4.7-12.3l0.1-1.2V627h-3.3v-21.3h4l5.2,14.2L123.7,605.7z"/>
	<path d="M132.7,605.7h3.5V627h-3.5V605.7z M134.3,623.6h12.3v3.4h-12.3V623.6z"/>
</g>
<g>
	<path d="M88.9,645.2v2H77.1v-2H88.9z M84.1,652.1h-2.1v-11.9h2.1V652.1z"/>
	<path d="M98.2,656.2c0,0-0.6-0.3-1.7-1s-2-1.6-2.6-2.8s-0.9-2.6-0.9-4.2v-5.8c0-1.6,0.3-3,0.9-4.2s1.5-2.1,2.6-2.8
		c1.1-0.7,2.4-1,3.9-1c1.2,0,2.3,0.2,3.4,0.7s1.9,1.2,2.6,2.1s1.2,2,1.4,3.2h-2.1c-0.2-0.8-0.6-1.5-1.1-2.1s-1.2-1.1-1.9-1.4
		s-1.5-0.5-2.2-0.5c-1.1,0-2,0.2-2.8,0.7s-1.4,1.2-1.9,2.1c-0.4,0.9-0.7,2-0.7,3.1v5.8c0,1.2,0.2,2.2,0.7,3.1
		c0.4,0.9,1.1,1.6,1.9,2.1s1.7,0.7,2.8,0.7c0.8,0,1.5-0.2,2.2-0.5s1.3-0.8,1.9-1.4s0.9-1.3,1.1-2.2h2.1c-0.2,1.2-0.7,2.3-1.4,3.2
		c-0.7,0.9-1.6,1.6-2.6,2.1s-2.1,0.7-3.4,0.7C99,656.2,98.2,656.2,98.2,656.2z"/>
	<path d="M116.9,656.2c0,0-0.5-0.1-1.4-0.3s-1.8-0.5-2.6-0.9s-1.5-0.9-2.2-1.5l1.3-1.7c0.9,0.8,1.9,1.4,2.9,1.8s2.2,0.6,3.5,0.6
		c1.8,0,3.2-0.4,4.2-1.1s1.5-1.7,1.5-3v0c0-0.8-0.2-1.5-0.7-1.9s-1-0.9-1.7-1.1s-1.6-0.5-2.7-0.7c0,0-0.1,0-0.1,0s-0.1,0-0.1,0
		l-0.4-0.1c-1.5-0.3-2.7-0.6-3.6-0.9c-0.9-0.3-1.7-0.8-2.3-1.6c-0.6-0.7-0.9-1.8-0.9-3.1v0c0-1.3,0.3-2.4,0.9-3.4s1.5-1.6,2.6-2.1
		s2.5-0.7,4.1-0.7c0.8,0,1.5,0.1,2.2,0.2s1.5,0.4,2.2,0.7s1.4,0.7,2.1,1.2l-1.2,1.7c-0.9-0.6-1.8-1.1-2.7-1.4
		c-0.9-0.3-1.7-0.5-2.6-0.5c-1.7,0-3.1,0.4-4,1.1s-1.4,1.8-1.4,3.1v0c0,0.8,0.2,1.4,0.7,1.9c0.5,0.5,1.1,0.8,1.8,1s1.7,0.5,2.9,0.7
		c0,0,0.1,0,0.1,0s0.1,0,0.1,0c0.1,0,0.1,0,0.2,0c0.1,0,0.1,0,0.2,0c1.3,0.3,2.5,0.6,3.3,0.9s1.6,0.9,2.2,1.6c0.6,0.7,0.9,1.8,0.9,3
		v0c0,1.3-0.3,2.4-0.9,3.3c-0.6,0.9-1.5,1.6-2.7,2.1c-1.2,0.5-2.6,0.7-4.2,0.7C117.4,656.2,116.9,656.2,116.9,656.2z"/>
	<path d="M135.4,656.2c0,0-0.5-0.1-1.4-0.3s-1.8-0.5-2.6-0.9s-1.5-0.9-2.2-1.5l1.3-1.7c0.9,0.8,1.9,1.4,2.9,1.8s2.2,0.6,3.5,0.6
		c1.8,0,3.2-0.4,4.2-1.1s1.5-1.7,1.5-3v0c0-0.8-0.2-1.5-0.7-1.9s-1-0.9-1.7-1.1s-1.6-0.5-2.7-0.7c0,0-0.1,0-0.1,0s-0.1,0-0.1,0
		l-0.4-0.1c-1.5-0.3-2.7-0.6-3.6-0.9c-0.9-0.3-1.7-0.8-2.3-1.6c-0.6-0.7-0.9-1.8-0.9-3.1v0c0-1.3,0.3-2.4,0.9-3.4s1.5-1.6,2.6-2.1
		s2.5-0.7,4.1-0.7c0.8,0,1.5,0.1,2.2,0.2s1.5,0.4,2.2,0.7s1.4,0.7,2.1,1.2l-1.2,1.7c-0.9-0.6-1.8-1.1-2.7-1.4
		c-0.9-0.3-1.7-0.5-2.6-0.5c-1.7,0-3.1,0.4-4,1.1s-1.4,1.8-1.4,3.1v0c0,0.8,0.2,1.4,0.7,1.9c0.5,0.5,1.1,0.8,1.8,1s1.7,0.5,2.9,0.7
		c0,0,0.1,0,0.1,0s0.1,0,0.1,0c0.1,0,0.1,0,0.2,0c0.1,0,0.1,0,0.2,0c1.3,0.3,2.5,0.6,3.3,0.9s1.6,0.9,2.2,1.6c0.6,0.7,0.9,1.8,0.9,3
		v0c0,1.3-0.3,2.4-0.9,3.3c-0.6,0.9-1.5,1.6-2.7,2.1c-1.2,0.5-2.6,0.7-4.2,0.7C135.9,656.2,135.4,656.2,135.4,656.2z"/>
</g>
<g>
	<path d="M1364,73.4c0,0-0.8-0.2-2.3-0.5s-3-0.8-4.4-1.4s-2.6-1.4-3.7-2.3l3-5.3c1.3,1.1,2.8,1.9,4.5,2.5s3.5,0.9,5.3,0.9
		c2.1,0,3.7-0.4,4.9-1.1s1.7-1.7,1.7-3v0c0-0.9-0.3-1.6-0.8-2.2s-1.2-0.9-2-1.2s-1.9-0.5-3.2-0.7c0,0-0.1,0-0.1,0s-0.1,0-0.1,0
		l-0.5-0.1c-2.3-0.4-4.2-0.8-5.7-1.3s-2.8-1.5-3.8-2.8s-1.6-3.3-1.6-5.8v0c0-2.2,0.5-4.1,1.5-5.6s2.4-2.8,4.3-3.6s4.1-1.2,6.8-1.2
		c1.2,0,2.5,0.1,3.7,0.4s2.5,0.7,3.7,1.2s2.4,1.2,3.5,1.9l-2.7,5.4c-1.3-0.9-2.7-1.6-4.1-2.1s-2.8-0.8-4.1-0.8c-2,0-3.5,0.3-4.6,1
		s-1.6,1.6-1.6,2.7v0c0,1,0.3,1.8,0.8,2.3s1.3,1,2.1,1.3s2,0.5,3.5,0.8c0.1,0,0.1,0,0.2,0s0.1,0,0.2,0c0.1,0,0.2,0,0.3,0.1
		s0.2,0,0.3,0.1c2.2,0.4,4,0.9,5.4,1.5s2.7,1.6,3.6,2.9s1.5,3.2,1.5,5.5v0c0,2.2-0.5,4-1.5,5.6s-2.5,2.7-4.4,3.5s-4.3,1.2-7,1.2
		C1364.8,73.4,1364,73.4,1364,73.4z"/>
	<path d="M1390.8,73.4c0,0-0.8-0.4-2.4-1.1s-2.9-1.8-3.8-3.3s-1.5-3.1-1.6-5.1h6.6c0.1,0.7,0.3,1.3,0.6,1.8s0.7,0.9,1.2,1.1
		s1.1,0.4,1.7,0.4c1.2,0,2.2-0.3,2.8-1s1-1.6,1-2.9v-0.8c0-1.3-0.3-2.3-0.8-3s-1.3-1.1-2.3-1.1h-2.9v-6.2h2.9c0.8,0,1.4-0.3,1.9-0.9
		s0.7-1.5,0.7-2.6v-0.6c0-1-0.2-1.9-0.7-2.4s-1.2-0.9-2.1-0.9c-0.6,0-1.1,0.1-1.6,0.4s-0.9,0.7-1.2,1.3s-0.6,1.2-0.7,2h-6.6
		c0.2-2.1,0.7-3.9,1.7-5.4s2.1-2.7,3.6-3.4s3.2-1.2,5-1.2c3,0,5.3,0.8,7,2.3s2.5,3.7,2.5,6.6v1c0,1.6-0.4,3-1.2,4.1s-1.9,2-3.4,2.6
		c1.6,0.4,2.9,1.2,3.8,2.6s1.3,3.1,1.3,5.1v1c0,2-0.4,3.7-1.2,5.1s-1.9,2.5-3.4,3.2s-3.3,1.1-5.4,1.1
		C1391.8,73.4,1390.8,73.4,1390.8,73.4z"/>
</g>
<g>
	<path d="M669.5,278.4c0,0-0.9-0.5-2.8-1.5s-3.3-2.4-4.2-4.3s-1.5-4.2-1.5-6.9v-9.4c0-2.7,0.5-5,1.5-6.9s2.4-3.3,4.2-4.3
		s4.1-1.5,6.7-1.5c2.1,0,4.1,0.5,5.7,1.4s3.1,2.3,4.2,4s1.9,3.9,2.3,6.4h-6.7c-0.3-1.1-0.6-2.1-1.2-2.9s-1.2-1.4-1.9-1.8
		s-1.6-0.6-2.5-0.6c-1.2,0-2.2,0.2-3.1,0.7s-1.5,1.2-1.9,2.2s-0.7,2.1-0.7,3.4v9.4c0,1.3,0.2,2.5,0.7,3.4s1.1,1.7,1.9,2.1
		s1.9,0.7,3.1,0.7c0.9,0,1.8-0.2,2.5-0.6s1.4-1,1.9-1.8s0.9-1.8,1.1-2.9h6.7c-0.4,2.5-1.2,4.6-2.3,6.4s-2.5,3.1-4.2,4
		s-3.6,1.4-5.7,1.4C670.8,278.4,669.5,278.4,669.5,278.4z"/>
	<path d="M697.4,270c0,0.6,0.2,1.1,0.5,1.4s0.8,0.5,1.4,0.5h1.1v6.2h-3.3c-2,0-3.5-0.6-4.5-1.7s-1.6-2.7-1.6-4.8v-27.6h6.4V270z"/>
	<path d="M709,277.1c-1.6-0.8-2.8-2-3.6-3.6s-1.2-3.5-1.2-5.7v-4c0-2.2,0.4-4.1,1.2-5.7s2-2.8,3.6-3.6s3.5-1.2,5.7-1.2
		s4.1,0.4,5.7,1.2s2.8,2,3.6,3.6s1.2,3.5,1.2,5.7v4c0,2.2-0.4,4.1-1.2,5.7s-2,2.8-3.6,3.6s-3.5,1.2-5.7,1.2S710.6,277.9,709,277.1z
		 M717.7,271c0.7-0.8,1.1-1.8,1.1-3.2v-4c0-1.4-0.4-2.4-1.1-3.2s-1.7-1.1-3-1.1c-1.3,0-2.3,0.4-3,1.1s-1.1,1.8-1.1,3.2v4
		c0,1.4,0.4,2.4,1.1,3.2s1.7,1.1,3,1.1S717,271.8,717.7,271z"/>
	<path d="M736.9,268.5c0,1.2,0.3,2.1,1,2.7s1.6,1,2.8,1s2.1-0.3,2.8-1s1-1.6,1-2.8l0.3,5.3c-0.5,1.3-1.2,2.4-2.3,3.4
		s-2.3,1.4-3.9,1.4c-2.6,0-4.6-0.8-6-2.5s-2.1-4.1-2.1-7.1v-15h6.4V268.5z M744.4,253.7h6.4V278h-6.4V253.7z"/>
	<path d="M760.2,277.1c-1.2-0.8-2.2-2-2.8-3.6s-1-3.5-1-5.7v-3.9c0-2.2,0.3-4.1,1-5.7s1.6-2.8,2.8-3.6s2.7-1.2,4.4-1.2
		c1.3,0,2.5,0.4,3.6,1.2s1.9,1.9,2.6,3.3l-0.5,5.4c0-0.8-0.1-1.5-0.4-2.1s-0.7-1-1.2-1.3s-1.2-0.5-2-0.5c-1.2,0-2.1,0.4-2.8,1.2
		s-1,2-1,3.5v3.9c0,1.5,0.3,2.6,1,3.4s1.6,1.2,2.8,1.2c0.8,0,1.4-0.1,2-0.4s0.9-0.7,1.2-1.3s0.4-1.2,0.4-2l0.3,5.6
		c-0.5,1.3-1.3,2.4-2.3,3.1s-2.3,1.1-3.7,1.1C762.9,278.4,761.4,277.9,760.2,277.1z M770.3,243.9h6.4V278h-6.4V243.9z"/>
	<path d="M783.5,243.9h6.4V278h-6.4V243.9z M785.8,243.9h20v6.2h-20V243.9z M785.8,258.3h17.5v6.2h-17.5V258.3z"/>
	<path d="M809.9,253.7h6.9V278h-6.9V253.7z M822.4,259.7c-0.5-0.2-1-0.2-1.6-0.2c-1.3,0-2.3,0.4-3,1.3s-1.1,2-1.1,3.5l-0.5-6.3
		c0.7-1.5,1.5-2.6,2.6-3.4s2.2-1.2,3.5-1.2c1,0,1.9,0.2,2.8,0.5s1.5,0.8,2.1,1.4l-3.8,5.2C823.2,260.1,822.8,259.9,822.4,259.7z"/>
	<path d="M834,277.1c-1.6-0.8-2.8-2-3.6-3.6s-1.2-3.5-1.2-5.7v-4c0-2.2,0.4-4.1,1.2-5.7s2-2.8,3.6-3.6s3.5-1.2,5.7-1.2
		s4.1,0.4,5.7,1.2s2.8,2,3.6,3.6s1.2,3.5,1.2,5.7v4c0,2.2-0.4,4.1-1.2,5.7s-2,2.8-3.6,3.6s-3.5,1.2-5.7,1.2S835.6,277.9,834,277.1z
		 M842.7,271c0.7-0.8,1.1-1.8,1.1-3.2v-4c0-1.4-0.4-2.4-1.1-3.2s-1.7-1.1-3-1.1c-1.3,0-2.3,0.4-3,1.1s-1.1,1.8-1.1,3.2v4
		c0,1.4,0.4,2.4,1.1,3.2s1.7,1.1,3,1.1S841.9,271.8,842.7,271z"/>
	<path d="M856,253.7h6.4V278H856V253.7z M870.1,263.3c0-1.2-0.3-2.1-1-2.8s-1.6-1-2.9-1c-1.2,0-2.1,0.3-2.8,1s-1,1.6-1,2.8l-0.5-5.4
		c0.7-1.5,1.6-2.7,2.6-3.4s2.3-1.1,3.9-1.1c2.6,0,4.5,0.9,6,2.6s2.1,4.2,2.1,7.3V278h-6.4V263.3z"/>
	<path d="M881,253.7h11.9v5.5H881V253.7z M885,276.5c-1-1.1-1.5-2.7-1.5-4.8v-25.1h6.4v23.5c0,0.6,0.1,1.1,0.4,1.4s0.6,0.5,1,0.5
		h1.6v6.2h-3.2C887.5,278.1,885.9,277.6,885,276.5z"/>
</g>
<path fill="#5294CF" d="M2003.7,1094.6h3l49.5-24.8l0.8-1.2V871l-0.8-1.2l-49.5-24.7h-3.1L2003.7,1094.6"/>
<path fill="#1F5B98" d="M1939.3,1094.6h-3.1l-49.5-24.8l-1-1.7l-0.5-196.1l1.5-2.2l49.5-24.7h3.1L1939.3,1094.6"/>
<path fill="#2D72B8" d="M1936.3,845.1h70.4v249.6h-70.4V845.1z"/>
<path fill="#1A476F" d="M2082.2,964.2l-1.7-0.4l-23.9-2.2l-0.4,0.2l-49.6-2h-70.4l-49.6,2V924l-0.1,0l0.1-0.1l49.6-11.5h70.4
	l49.6,11.5l18.2,9.7v-6.2l7.7-0.8l-0.8-1.6l-24.4-17.4l-0.7,0.2l-49.6-15.4h-70.4l-49.6,15.4v-38l-25.9,30.4v26.5l0.2-0.1l7.5,0.8
	v6.4l-7.7,4.1v26.4l0.2,0l7.5,0.1v11.1l-6.5,0.1l-1.2-0.1v26.4l7.7,4.1v6.4l-7.4,0.8l-0.3-0.2v26.5l25.9,30.4v-38l49.6,15.4h70.4
	l49.7-15.4l0.7,0.3l24.1-17.2l1.1-1.7l-7.7-0.8v-6.3l-1-0.4l-16.5,8.9l-0.6,1.2l-49.7,11.4v0h-70.4v0l-49.6-11.5v-37.9l49.6,2v0
	h70.4l49.6-2l1.1,0.5l23.2-2l1.6-0.8l-7.7-0.1v-11.1L2082.2,964.2"/>
<path fill="#2D72B8" d="M2056.3,1031.9v38l25.9-30.4v-26.4l-25.8,18.7L2056.3,1031.9 M2056.3,1015.8l0.1,0l25.8-13.9v-26.5
	l-25.9,2.4V1015.8 M2056.4,924l-0.1,0v37.9l25.9,2.4v-26.5L2056.4,924 M2056.4,907.9l25.8,18.6v-26.4l-25.9-30.4v38L2056.4,907.9
	L2056.4,907.9"/>
<g>
	<path d="M1857.8,784.9h6.4V819h-6.4V784.9z M1861,812.8h8.2c2.1,0,3.7-0.5,4.9-1.5s1.7-2.5,1.7-4.3v-10c0-1.9-0.6-3.3-1.7-4.3
		s-2.8-1.5-4.9-1.5h-8.2v-6.2h8c2.8,0,5.3,0.5,7.3,1.4s3.5,2.3,4.6,4.2s1.6,4,1.6,6.6v9.7c0,2.5-0.5,4.6-1.5,6.4s-2.5,3.3-4.5,4.3
		s-4.5,1.5-7.4,1.5h-8V812.8z"/>
	<path d="M1886.2,794.7h6l8.2,21.1l-4.1,5.2L1886.2,794.7z M1908.7,794.7l-10.8,30c-0.4,1.1-0.9,2-1.5,2.6s-1.3,1.1-2.2,1.4
		s-2,0.4-3.3,0.4h-1.4v-6.2h1.4c0.7,0,1.3-0.2,1.7-0.5s0.8-0.8,1-1.5l9-26.3H1908.7z"/>
	<path d="M1912,794.7h6.4V819h-6.4V794.7z M1926,804.3c0-1.2-0.3-2.1-1-2.8s-1.6-1-2.9-1c-1.2,0-2.1,0.3-2.8,1s-1,1.6-1,2.8
		l-0.5-5.4c0.7-1.5,1.6-2.7,2.6-3.4s2.3-1.1,3.9-1.1c2.6,0,4.5,0.9,6,2.6s2.1,4.2,2.1,7.3V819h-6.4V804.3z"/>
	<path d="M1939.5,817.5c-1.3-1.2-1.9-3.1-1.9-5.7c0-2.4,0.7-4.2,2.2-5.4s3.6-1.8,6.5-1.8h6.1l0.3,4.9h-6.4c-1,0-1.7,0.2-2.2,0.6
		s-0.7,1-0.7,1.7c0,0.8,0.3,1.4,0.9,1.8s1.5,0.6,2.8,0.6c1.7,0,3-0.2,3.8-0.6s1.3-1,1.3-1.8l0.5,3.5c-0.1,0.9-0.5,1.6-1.2,2.2
		s-1.6,1.1-2.7,1.4s-2.2,0.5-3.4,0.5C1942.8,819.4,1940.8,818.7,1939.5,817.5z M1952.2,803.6c0-1.1-0.4-2-1.1-2.6s-1.8-0.9-3.2-0.9
		c-0.9,0-1.8,0.1-2.7,0.4s-1.7,0.7-2.4,1.2l-4-3.9c1-1.1,2.3-2,3.8-2.6s3.4-0.9,5.3-0.9c2.1,0,3.9,0.4,5.4,1.1s2.6,1.7,3.4,3.1
		s1.2,3,1.2,4.9V819h-5.8V803.6z"/>
	<path d="M1964.3,794.7h6.4V819h-6.4V794.7z M1978.5,805c0-1.4-0.4-2.5-1.1-3.3s-1.7-1.2-3-1.2c-1.2,0-2.1,0.3-2.8,1s-1,1.6-1,2.8
		l-0.5-5.4c0.7-1.5,1.6-2.6,2.7-3.4s2.3-1.2,3.8-1.2c1.7,0,3.2,0.4,4.4,1.2s2.2,2,2.8,3.6s1,3.5,1,5.7V819h-6.4V805z M1992.7,805
		c0-1.4-0.3-2.5-1-3.3s-1.6-1.2-2.9-1.2c-1.2,0-2.2,0.4-2.8,1.1s-1,1.8-1,3.2l-1.2-5.6c0.8-1.5,1.8-2.7,3-3.6s2.6-1.3,4.1-1.3
		c1.8,0,3.2,0.4,4.5,1.2s2.2,2,2.8,3.6s1,3.5,1,5.7V819h-6.4V805z"/>
	<path d="M2009.5,818.1c-1.6-0.8-2.8-2-3.6-3.6s-1.2-3.5-1.2-5.7v-4c0-2.2,0.4-4.1,1.2-5.7s2-2.8,3.6-3.6s3.5-1.2,5.7-1.2
		s4.1,0.4,5.7,1.2s2.8,2,3.6,3.6s1.2,3.5,1.2,5.7v4c0,2.2-0.4,4.1-1.2,5.7s-2,2.8-3.6,3.6s-3.5,1.2-5.7,1.2
		S2011.1,818.9,2009.5,818.1z M2018.2,812c0.7-0.8,1.1-1.8,1.1-3.2v-4c0-1.4-0.4-2.4-1.1-3.2s-1.7-1.1-3-1.1c-1.3,0-2.3,0.4-3,1.1
		s-1.1,1.8-1.1,3.2v4c0,1.4,0.4,2.4,1.1,3.2s1.7,1.1,3,1.1S2017.5,812.8,2018.2,812z"/>
	<path d="M2032.1,784.9h6.4V819h-6.4V784.9z M2035.3,812.8h8.2c2.1,0,3.7-0.5,4.9-1.5s1.7-2.5,1.7-4.3v-10c0-1.9-0.6-3.3-1.7-4.3
		s-2.8-1.5-4.9-1.5h-8.2v-6.2h8c2.8,0,5.3,0.5,7.3,1.4s3.5,2.3,4.6,4.2s1.6,4,1.6,6.6v9.7c0,2.5-0.5,4.6-1.5,6.4s-2.5,3.3-4.5,4.3
		s-4.5,1.5-7.4,1.5h-8V812.8z"/>
	<path d="M2063.6,784.9h6.4V819h-6.4V784.9z M2066.4,812.8h10.9c1.5,0,2.6-0.4,3.4-1.1s1.2-1.7,1.2-3v-0.1c0-0.9-0.2-1.6-0.5-2.2
		s-0.9-1.1-1.6-1.4s-1.5-0.5-2.5-0.5h-10.9v-6.2h10.9c1.3,0,2.4-0.3,3.1-1s1.1-1.6,1.1-2.8c0-1.1-0.4-1.9-1.1-2.6s-1.8-0.9-3.1-0.9
		h-10.9v-6.2h11.1c2.2,0,4.1,0.4,5.6,1.1s2.8,1.8,3.6,3.2s1.2,3,1.2,5c0,1.3-0.3,2.5-0.8,3.5s-1.3,1.9-2.3,2.5s-2.2,1.1-3.6,1.3
		c1.5,0.2,2.8,0.7,3.9,1.4s1.9,1.6,2.4,2.8s0.8,2.5,0.8,4v0.1c0,2-0.4,3.6-1.2,5s-2,2.4-3.6,3.2s-3.5,1.1-5.7,1.1h-11.5V812.8z"/>
</g>
<g>
	<path d="M669.4,227.3c0,0-0.7-0.4-2-1.2s-2.4-1.9-3.1-3.3s-1.1-3.1-1.1-5v-7c0-1.9,0.4-3.6,1.1-5s1.8-2.6,3.1-3.3s2.9-1.2,4.7-1.2
		c1.5,0,2.8,0.3,4,0.9s2.3,1.5,3.1,2.7s1.4,2.5,1.7,4h-3.7c-0.2-0.8-0.6-1.5-1.1-2.1s-1.1-1.1-1.8-1.5s-1.4-0.5-2.2-0.5
		c-1,0-2,0.3-2.7,0.8s-1.4,1.2-1.8,2.1s-0.7,2-0.7,3.2v7c0,1.2,0.2,2.3,0.7,3.2s1,1.6,1.8,2.1s1.7,0.7,2.7,0.7
		c0.8,0,1.5-0.2,2.2-0.5s1.3-0.8,1.8-1.4s0.9-1.4,1.1-2.2h3.7c-0.3,1.5-0.9,2.8-1.7,4s-1.9,2-3.1,2.7s-2.6,0.9-4,0.9
		C670.3,227.3,669.4,227.3,669.4,227.3z"/>
	<path d="M686,201.5h3.6v25.6H686V201.5z M688.4,223.7h5.8c1.9,0,3.3-0.5,4.4-1.5s1.6-2.4,1.6-4.1v-7.5c0-1.8-0.5-3.2-1.6-4.1
		s-2.5-1.5-4.4-1.5h-5.8v-3.4h5.7c2.1,0,3.8,0.4,5.3,1.1s2.6,1.8,3.3,3.1s1.1,3,1.1,5v7.2c0,1.9-0.4,3.6-1.1,5s-1.9,2.4-3.3,3.1
		s-3.2,1.1-5.3,1.1h-5.7V223.7z"/>
	<path d="M709.6,201.5h3.3l12.5,19.8l-0.4,0.5v-20.2h3.6V227h-3.3l-12.5-19.5l0.4-0.5V227h-3.6V201.5z"/>
</g>
<g>
	<path d="M1857.7,744.5h3.3l12.5,19.8l-0.4,0.5v-20.2h3.6V770h-3.3l-12.5-19.5l0.4-0.5V770h-3.6V744.5z"/>
	<path d="M1885.5,769.4c-1.1-0.6-2-1.5-2.6-2.7s-0.9-2.6-0.9-4.3v-3c0-1.7,0.3-3.1,0.9-4.2s1.5-2.1,2.6-2.7s2.5-0.9,4.1-0.9
		s2.9,0.3,4.1,0.9s2,1.5,2.6,2.7s0.9,2.6,0.9,4.2v3c0,1.7-0.3,3.1-0.9,4.3s-1.5,2.1-2.6,2.7s-2.5,0.9-4.1,0.9
		S1886.6,770,1885.5,769.4z M1892.5,765.7c0.7-0.8,1-1.9,1-3.3v-3c0-1.4-0.3-2.5-1-3.3s-1.7-1.2-2.9-1.2s-2.2,0.4-2.9,1.2
		s-1,1.9-1,3.3v3c0,1.4,0.3,2.5,1,3.3s1.7,1.2,2.9,1.2S1891.8,766.5,1892.5,765.7z"/>
	<path d="M1908.4,770.3c0,0-0.6-0.1-1.7-0.4s-2.1-0.6-3.1-1.1s-1.8-1.1-2.7-1.8l2.2-2.7c1,0.8,2,1.5,3.2,1.9s2.4,0.6,3.8,0.6
		c1.9,0,3.3-0.3,4.3-1s1.5-1.7,1.5-2.9v0c0-0.9-0.2-1.6-0.7-2.1s-1.1-0.9-1.8-1.2s-1.7-0.5-2.8-0.7c0,0-0.1,0-0.1,0s-0.1,0-0.1,0
		l-0.3-0.1c-1.7-0.3-3.1-0.6-4.2-1s-2-1-2.8-2s-1.1-2.4-1.1-4.2v0c0-1.6,0.4-2.9,1.1-4.1s1.7-2,3.1-2.6s3-0.9,4.9-0.9
		c0.9,0,1.8,0.1,2.7,0.3s1.8,0.5,2.6,0.9s1.7,0.9,2.5,1.5l-2,2.8c-1-0.7-1.9-1.3-2.9-1.6s-1.9-0.5-2.9-0.5c-1.7,0-3.1,0.3-4.1,1
		s-1.5,1.7-1.5,3v0c0,0.9,0.2,1.6,0.7,2.1s1.1,0.9,1.9,1.1s1.8,0.5,3.1,0.7c0,0,0.1,0,0.1,0s0.1,0,0.1,0c0.1,0,0.1,0,0.2,0
		s0.1,0,0.2,0c1.5,0.3,2.8,0.7,3.9,1.1s1.9,1.1,2.6,2.1s1,2.3,1,4v0c0,1.6-0.4,2.9-1.1,4s-1.8,2-3.2,2.5s-3.1,0.9-5.1,0.9
		C1909,770.3,1908.4,770.3,1908.4,770.3z"/>
	<path d="M1928.5,769.2c-1.4-0.8-2.4-1.9-3.2-3.3s-1.1-3.1-1.1-4.9v-7.2c0-1.9,0.4-3.5,1.1-4.9s1.8-2.5,3.2-3.3s2.9-1.2,4.7-1.2
		s3.4,0.4,4.7,1.2s2.4,1.9,3.2,3.3s1.1,3.1,1.1,4.9v7.2c0,1.9-0.4,3.5-1.1,4.9s-1.8,2.5-3.2,3.3s-2.9,1.2-4.7,1.2
		S1929.8,769.9,1928.5,769.2z M1936,766.1c0.8-0.5,1.4-1.1,1.9-2s0.7-1.9,0.7-3v-7.5c0-1.1-0.2-2.2-0.7-3s-1.1-1.5-1.9-2
		s-1.7-0.7-2.8-0.7s-2,0.2-2.8,0.7s-1.4,1.1-1.9,2s-0.7,1.9-0.7,3v7.5c0,1.1,0.2,2.2,0.7,3s1.1,1.5,1.9,2s1.7,0.7,2.8,0.7
		S1935.2,766.6,1936,766.1z M1933.1,763l1.9-2.4l9.5,7.5l-1.9,2.4L1933.1,763z"/>
	<path d="M1948.4,744.5h3.6v25.6h-3.6V744.5z M1950.2,766.7h14.6v3.4h-14.6V766.7z"/>
</g>
<g>
	<path d="M1295.5,746.4h3.6V772h-3.6V746.4z M1297.3,746.4h14.3v3.4h-14.3V746.4z M1297.3,757.8h12.4v3.4h-12.4V757.8z"/>
	<path d="M1316.1,770.9c-1.1-0.9-1.7-2.3-1.7-4.2c0-1.8,0.5-3.2,1.5-4.1s2.6-1.4,4.6-1.4h5.2l0.2,2.9h-5.4c-0.9,0-1.6,0.2-2.1,0.6
		s-0.7,1.1-0.7,1.9c0,0.9,0.3,1.6,0.9,2.1s1.6,0.7,2.8,0.7c1.4,0,2.4-0.1,3.1-0.4s1-0.8,1-1.4l0.4,2.6c-0.3,0.5-0.7,0.9-1.2,1.2
		s-1,0.6-1.6,0.7s-1.3,0.2-2.1,0.2C1318.9,772.3,1317.2,771.8,1316.1,770.9z M1325.6,760.4c0-1.2-0.3-2.1-1-2.8s-1.5-1-2.7-1
		c-0.7,0-1.4,0.1-2.1,0.3s-1.3,0.5-1.9,0.9l-2.6-1.8c0.7-0.8,1.6-1.5,2.7-1.9s2.4-0.7,3.8-0.7c1.5,0,2.8,0.3,3.9,0.8
		s1.9,1.3,2.5,2.3s0.8,2.2,0.8,3.7V772h-3.4V760.4z"/>
	<path d="M1335.2,770.9c-1.1-0.9-1.7-2.3-1.7-4.2c0-1.8,0.5-3.2,1.5-4.1s2.6-1.4,4.6-1.4h5.2l0.2,2.9h-5.4c-0.9,0-1.6,0.2-2.1,0.6
		s-0.7,1.1-0.7,1.9c0,0.9,0.3,1.6,0.9,2.1s1.6,0.7,2.8,0.7c1.4,0,2.4-0.1,3.1-0.4s1-0.8,1-1.4l0.4,2.6c-0.3,0.5-0.7,0.9-1.2,1.2
		s-1,0.6-1.6,0.7s-1.3,0.2-2.1,0.2C1338,772.3,1336.3,771.8,1335.2,770.9z M1344.7,760.4c0-1.2-0.3-2.1-1-2.8s-1.5-1-2.7-1
		c-0.7,0-1.4,0.1-2.1,0.3s-1.3,0.5-1.9,0.9l-2.6-1.8c0.7-0.8,1.6-1.5,2.7-1.9s2.4-0.7,3.8-0.7c1.5,0,2.8,0.3,3.9,0.8
		s1.9,1.3,2.5,2.3s0.8,2.2,0.8,3.7V772h-3.4V760.4z"/>
	<path d="M1359.8,772.3c0,0-0.6-0.1-1.7-0.4s-2.1-0.6-3.1-1.1s-1.8-1.1-2.7-1.8l2.2-2.7c1,0.8,2,1.5,3.2,1.9s2.4,0.6,3.8,0.6
		c1.9,0,3.3-0.3,4.3-1s1.5-1.7,1.5-2.9v0c0-0.9-0.2-1.6-0.7-2.1s-1.1-0.9-1.8-1.2s-1.7-0.5-2.8-0.7c0,0-0.1,0-0.1,0s-0.1,0-0.1,0
		l-0.3-0.1c-1.7-0.3-3.1-0.6-4.2-1s-2-1-2.8-2s-1.1-2.4-1.1-4.2v0c0-1.6,0.4-2.9,1.1-4.1s1.7-2,3.1-2.6s3-0.9,4.9-0.9
		c0.9,0,1.8,0.1,2.7,0.3s1.8,0.5,2.6,0.9s1.7,0.9,2.5,1.5l-2,2.8c-1-0.7-1.9-1.3-2.9-1.6s-1.9-0.5-2.9-0.5c-1.7,0-3.1,0.3-4.1,1
		s-1.4,1.7-1.4,3v0c0,0.9,0.2,1.6,0.7,2.1s1.1,0.9,1.9,1.1s1.8,0.5,3.1,0.7c0,0,0.1,0,0.1,0s0.1,0,0.1,0c0.1,0,0.1,0,0.2,0
		s0.1,0,0.2,0c1.5,0.3,2.8,0.7,3.9,1.1s1.9,1.1,2.6,2.1s1,2.3,1,4v0c0,1.6-0.4,2.9-1.1,4s-1.8,2-3.2,2.5s-3.1,0.9-5.1,0.9
		C1360.4,772.3,1359.8,772.3,1359.8,772.3z"/>
</g>
<g>
	<g>
		<line fill="none" stroke="#666666" stroke-width="4" stroke-miterlimit="10" x1="1201.9" y1="228.6" x2="931.5" y2="348.5"/>
		<g>
			<g>
				<polygon fill="#666666" points="1175,216.5 1199.5,229.7 1192.8,256.7 1231.5,215.5 				"/>
				<polygon fill="#A3A3A3" points="1182.1,218.2 1226.5,217.7 1202.2,228.5 				"/>
				<polygon fill="#C9C9C9" points="1196.3,250.3 1226.5,217.7 1202.2,228.5 				"/>
			</g>
		</g>
	</g>
</g>
<g>
	<g>
		<line fill="none" stroke="#666666" stroke-width="4" stroke-miterlimit="10" x1="616.9" y1="428.6" x2="346.5" y2="548.5"/>
		<g>
			<g>
				<polygon fill="#666666" points="590,416.5 614.5,429.7 607.8,456.7 646.5,415.5 				"/>
				<polygon fill="#A3A3A3" points="597.1,418.2 641.5,417.7 617.2,428.5 				"/>
				<polygon fill="#C9C9C9" points="611.3,450.3 641.5,417.7 617.2,428.5 				"/>
			</g>
		</g>
	</g>
</g>
<g>
	<path d="M386,500.8l2.6-1.1l5.7,13l-2.6,1.1L386,500.8z M393.3,500.5c-0.4,0-0.8,0.1-1.3,0.3c-0.8,0.4-1.3,0.9-1.6,1.5
		c-0.3,0.6-0.2,1.4,0.1,2.2l-1.4-2.4c0.1-1,0.3-1.8,0.8-2.5c0.4-0.7,1.1-1.2,1.8-1.6c0.6-0.3,1.2-0.4,1.7-0.4c0.6,0,1.1,0,1.6,0.2
		l-0.7,3C394.1,500.6,393.7,500.5,393.3,500.5z"/>
	<path d="M405.9,507.8c0,0-0.5,0-1.6-0.1c-1-0.1-2-0.5-2.8-1.1c-0.8-0.7-1.5-1.6-2-2.9l-0.6-1.5c-0.6-1.3-0.8-2.5-0.8-3.6
		c0-1.1,0.4-2.1,1-2.9c0.6-0.8,1.5-1.5,2.6-2c1.1-0.5,2.1-0.6,3.1-0.4c1,0.2,1.9,0.7,2.8,1.6c0.9,0.9,1.6,2,2.2,3.4l0.4,0.9
		l-8.8,3.8l-0.9-2.1l6.3-2.8c-0.5-1-1.2-1.7-1.9-2.1c-0.7-0.4-1.5-0.4-2.3-0.1c-1,0.4-1.6,1.1-1.8,1.9c-0.3,0.9-0.1,1.9,0.4,3
		l0.7,1.7c0.5,1.1,1.1,1.8,1.9,2.1c0.8,0.3,1.8,0.3,2.8-0.2c0.5-0.2,1-0.6,1.4-1c0.4-0.4,0.7-0.9,1-1.5l2.4,0.9
		c-0.4,0.9-0.9,1.7-1.5,2.4c-0.7,0.7-1.4,1.2-2.2,1.6C406.5,507.6,405.9,507.8,405.9,507.8z"/>
	<path d="M417.6,502.1c-0.9-0.1-1.6-0.5-2.3-1.1s-1.3-1.5-1.8-2.6l-1.2-2.9c-0.5-1.1-0.7-2.2-0.7-3.1c0-0.9,0.2-1.8,0.7-2.5
		c0.5-0.7,1.2-1.2,2.1-1.6c0.8-0.3,1.6-0.4,2.4-0.3c0.8,0.1,1.6,0.5,2.3,1l0.9,2.8c-0.2-0.6-0.5-1-0.9-1.3c-0.4-0.3-0.8-0.5-1.3-0.5
		c-0.5,0-1,0.1-1.5,0.3c-0.8,0.4-1.4,0.9-1.6,1.6c-0.2,0.7-0.1,1.6,0.3,2.5l1.2,2.8c0.4,0.9,1,1.6,1.6,1.9s1.5,0.3,2.3-0.1
		c0.5-0.2,1-0.5,1.2-0.9c0.3-0.4,0.4-0.8,0.5-1.3s-0.1-1-0.3-1.6l1.4,2.7c0,0.8-0.2,1.5-0.6,2.2c-0.4,0.7-1,1.2-1.9,1.6
		C419.4,502,418.5,502.2,417.6,502.1z M417.8,487l2.6-1.1l8,18.3l-2.6,1.1L417.8,487z"/>
	<path d="M430.3,491c0.4,0.9,0.9,1.5,1.6,1.8c0.7,0.3,1.4,0.3,2.3-0.1c0.8-0.4,1.4-0.9,1.7-1.5s0.2-1.4-0.1-2.2l1.4,2.6
		c0,0.8-0.2,1.5-0.6,2.2c-0.4,0.7-1.1,1.2-1.9,1.6c-1.4,0.6-2.7,0.6-3.9,0.1c-1.2-0.6-2.1-1.7-2.9-3.4l-3.4-7.9l2.6-1.1L430.3,491z
		 M432.1,480.8l2.5-1.1l5.7,13l-2.5,1.1L432.1,480.8z"/>
	<path d="M447.8,489.6c0,0-0.5,0-1.6-0.1c-1-0.1-2-0.5-2.8-1.1c-0.8-0.7-1.5-1.6-2-2.9l-0.6-1.5c-0.6-1.3-0.8-2.5-0.8-3.6
		s0.4-2.1,1-2.9c0.6-0.8,1.5-1.5,2.6-2c1.1-0.5,2.1-0.6,3.1-0.4c1,0.2,1.9,0.7,2.8,1.6s1.6,2,2.2,3.4l0.4,0.9l-8.8,3.8l-0.9-2.1
		l6.3-2.8c-0.5-1-1.2-1.7-1.9-2.1c-0.7-0.4-1.5-0.4-2.3-0.1c-1,0.4-1.6,1.1-1.8,1.9c-0.3,0.9-0.1,1.9,0.4,3l0.7,1.7
		c0.5,1.1,1.1,1.8,1.9,2.1s1.8,0.3,2.8-0.2c0.5-0.2,1-0.6,1.4-1c0.4-0.4,0.7-0.9,1-1.5l2.4,0.9c-0.4,0.9-0.9,1.7-1.5,2.4
		c-0.7,0.7-1.4,1.2-2.2,1.6C448.4,489.4,447.8,489.6,447.8,489.6z"/>
	<path d="M461.5,483.7c0,0-0.4,0.1-1.1,0.2s-1.5,0.2-2.2,0.1c-0.7,0-1.4-0.2-2.1-0.4l0.7-2.5c0.9,0.2,1.8,0.3,2.6,0.3
		c0.8,0,1.6-0.2,2.2-0.5c1-0.4,1.7-0.9,2.1-1.5s0.4-1.1,0.1-1.7c-0.2-0.4-0.5-0.7-0.8-0.8c-0.4-0.1-0.8-0.1-1.2,0
		c-0.4,0.1-1,0.3-1.8,0.6c-0.1,0-0.1,0.1-0.2,0.1c-0.1,0-0.2,0.1-0.2,0.1c0,0-0.1,0-0.1,0c0,0-0.1,0-0.1,0c-0.9,0.3-1.6,0.5-2.3,0.6
		c-0.7,0.1-1.3,0-1.9-0.4c-0.6-0.3-1.1-0.9-1.5-1.9c-0.4-0.9-0.5-1.8-0.4-2.5c0.1-0.8,0.5-1.5,1.1-2.1c0.6-0.6,1.5-1.2,2.6-1.7
		c0.7-0.3,1.3-0.5,2-0.7s1.3-0.2,2-0.2s1.3,0.1,2,0.2l-0.7,2.5c-0.8-0.1-1.6-0.2-2.3-0.1c-0.7,0.1-1.4,0.2-2,0.5
		c-0.9,0.4-1.5,0.8-1.8,1.3c-0.3,0.5-0.3,1-0.1,1.6c0.2,0.4,0.4,0.6,0.7,0.6c0.3,0.1,0.7,0.1,1.1-0.1c0.4-0.1,1-0.3,1.7-0.5
		c0.1,0,0.1,0,0.2-0.1c0.1,0,0.1,0,0.2-0.1c0,0,0,0,0.1,0c0,0,0.1,0,0.1,0c0.9-0.3,1.8-0.6,2.5-0.6c0.7-0.1,1.4,0,2.1,0.4
		s1.2,1,1.7,2.1c0.4,0.9,0.5,1.8,0.4,2.6c-0.1,0.8-0.5,1.5-1.2,2.2c-0.7,0.7-1.6,1.3-2.8,1.8C461.9,483.5,461.5,483.7,461.5,483.7z"
		/>
	<path d="M472,477.9c-0.7-0.4-1.4-1.1-1.9-2.3l-5.8-13.4l2.6-1.1l5.8,13.4c0.1,0.3,0.3,0.5,0.5,0.7c0.2,0.1,0.4,0.1,0.7,0l1.2-0.5
		l1.1,2.4l-1.5,0.6C473.7,478.2,472.8,478.3,472,477.9z M464.6,466.6l5.9-2.6l1,2.3l-5.9,2.6L464.6,466.6z"/>
	<path d="M487.8,462.2c-0.4-0.9-0.9-1.4-1.5-1.7c-0.7-0.3-1.4-0.2-2.2,0.1c-0.5,0.2-1,0.5-1.4,0.9c-0.4,0.4-0.8,0.8-1,1.2l-2.4-0.5
		c0.2-0.8,0.7-1.6,1.3-2.2c0.7-0.7,1.5-1.2,2.5-1.7c1.1-0.5,2.1-0.7,3-0.6c0.9,0,1.8,0.3,2.5,0.9c0.7,0.5,1.3,1.3,1.7,2.4l3.6,8.4
		l-2.4,1.1L487.8,462.2z M484.3,472.6c-1.1-0.3-1.9-1.2-2.5-2.5c-0.6-1.3-0.6-2.4-0.2-3.4s1.4-1.8,2.9-2.4l3.7-1.6l1.1,2l-3.9,1.7
		c-0.7,0.3-1.1,0.7-1.3,1.1c-0.2,0.4-0.2,1,0.1,1.6c0.3,0.7,0.7,1.1,1.3,1.2s1.3,0,2.2-0.4c1-0.4,1.7-0.8,2.1-1.3
		c0.4-0.4,0.5-0.8,0.3-1.3l1.1,1.7c-0.1,0.4-0.2,0.9-0.5,1.2c-0.2,0.4-0.5,0.7-0.9,1s-0.8,0.6-1.4,0.8
		C486.7,472.7,485.4,472.9,484.3,472.6z"/>
	<path d="M501.3,466.4c0,0-0.4,0.1-1.1,0.2c-0.7,0.1-1.5,0.2-2.2,0.1c-0.7,0-1.4-0.2-2.1-0.4l0.7-2.5c0.9,0.2,1.8,0.3,2.6,0.3
		c0.8,0,1.6-0.2,2.2-0.5c1-0.4,1.7-0.9,2.1-1.5s0.4-1.1,0.1-1.7c-0.2-0.4-0.5-0.7-0.8-0.8s-0.8-0.1-1.2,0c-0.4,0.1-1,0.3-1.8,0.6
		c-0.1,0-0.1,0.1-0.2,0.1s-0.2,0.1-0.2,0.1c0,0-0.1,0-0.1,0c0,0-0.1,0-0.1,0c-0.9,0.3-1.6,0.5-2.3,0.6c-0.7,0.1-1.3-0.1-1.9-0.4
		c-0.6-0.3-1.1-0.9-1.5-1.9c-0.4-0.9-0.5-1.8-0.4-2.5c0.1-0.8,0.5-1.5,1.1-2.1c0.6-0.6,1.5-1.2,2.6-1.7c0.7-0.3,1.4-0.5,2-0.7
		c0.7-0.1,1.3-0.2,2-0.2c0.7,0,1.3,0.1,2,0.2l-0.7,2.5c-0.8-0.1-1.6-0.2-2.3-0.1c-0.7,0.1-1.4,0.2-2,0.5c-0.9,0.4-1.5,0.8-1.8,1.3
		c-0.3,0.5-0.3,1-0.1,1.6c0.2,0.4,0.4,0.6,0.7,0.6c0.3,0.1,0.7,0.1,1.1-0.1c0.4-0.1,1-0.3,1.7-0.5c0.1,0,0.1,0,0.2-0.1
		s0.1,0,0.2-0.1c0,0,0,0,0.1,0c0,0,0.1,0,0.1,0c0.9-0.3,1.8-0.6,2.5-0.6c0.7-0.1,1.4,0,2.1,0.4s1.2,1,1.7,2.1
		c0.4,0.9,0.5,1.8,0.4,2.6s-0.5,1.5-1.2,2.2c-0.7,0.7-1.6,1.3-2.8,1.8C501.6,466.2,501.3,466.4,501.3,466.4z"/>
	<path d="M514.6,460.6c0,0-0.4,0.1-1.1,0.2s-1.5,0.2-2.2,0.1c-0.7,0-1.4-0.2-2.1-0.4l0.7-2.5c0.9,0.2,1.8,0.3,2.6,0.3
		c0.8,0,1.6-0.2,2.2-0.5c1-0.4,1.7-0.9,2.1-1.5c0.4-0.5,0.4-1.1,0.1-1.7c-0.2-0.4-0.5-0.7-0.8-0.8c-0.4-0.1-0.8-0.1-1.2,0
		c-0.4,0.1-1,0.3-1.8,0.6c-0.1,0-0.1,0.1-0.2,0.1c-0.1,0-0.2,0.1-0.2,0.1c0,0-0.1,0-0.1,0c0,0-0.1,0-0.1,0c-0.9,0.3-1.6,0.5-2.3,0.6
		c-0.7,0.1-1.3,0-1.9-0.4c-0.6-0.3-1.1-0.9-1.5-1.9c-0.4-0.9-0.5-1.8-0.4-2.5c0.1-0.8,0.5-1.5,1.1-2.1c0.6-0.6,1.5-1.2,2.6-1.7
		c0.7-0.3,1.4-0.5,2-0.7c0.7-0.1,1.3-0.2,2-0.2c0.7,0,1.3,0.1,2,0.2l-0.7,2.5c-0.8-0.1-1.6-0.2-2.3-0.1c-0.7,0.1-1.4,0.2-2,0.5
		c-0.9,0.4-1.5,0.8-1.8,1.3c-0.3,0.5-0.3,1-0.1,1.6c0.2,0.4,0.4,0.6,0.7,0.6c0.3,0.1,0.7,0.1,1.1-0.1c0.4-0.1,1-0.3,1.7-0.5
		c0.1,0,0.1,0,0.2-0.1c0.1,0,0.1,0,0.2-0.1c0,0,0,0,0.1,0c0,0,0.1,0,0.1,0c0.9-0.3,1.8-0.6,2.5-0.6c0.7-0.1,1.4,0,2.1,0.4
		s1.2,1,1.7,2.1c0.4,0.9,0.5,1.8,0.4,2.6c-0.1,0.8-0.5,1.5-1.2,2.2c-0.7,0.7-1.6,1.3-2.8,1.8C515,460.4,514.6,460.6,514.6,460.6z"/>
	<path d="M528,454.8c0,0-0.5,0-1.6-0.1s-2-0.5-2.8-1.1c-0.8-0.7-1.5-1.6-2-2.9l-0.6-1.5c-0.6-1.3-0.8-2.5-0.8-3.6
		c0-1.1,0.4-2.1,1-2.9c0.6-0.8,1.5-1.5,2.6-2c1.1-0.5,2.1-0.6,3.1-0.4c1,0.2,1.9,0.7,2.8,1.6s1.6,2,2.2,3.4l0.4,0.9l-8.8,3.8
		l-0.9-2.1l6.3-2.8c-0.5-1-1.2-1.7-1.9-2.1c-0.7-0.4-1.5-0.4-2.3-0.1c-1,0.4-1.6,1.1-1.8,1.9c-0.3,0.9-0.1,1.9,0.4,3l0.7,1.7
		c0.5,1.1,1.1,1.8,1.9,2.1c0.8,0.3,1.8,0.3,2.8-0.2c0.5-0.2,1-0.6,1.4-1c0.4-0.4,0.7-0.9,1-1.5l2.4,0.9c-0.4,0.9-0.9,1.7-1.5,2.4
		c-0.7,0.7-1.4,1.2-2.2,1.6C528.6,454.5,528,454.8,528,454.8z"/>
	<path d="M538.8,448.8c-0.7-0.4-1.4-1.1-1.9-2.3l-5.8-13.4l2.6-1.1l5.8,13.4c0.1,0.3,0.3,0.5,0.5,0.7c0.2,0.1,0.4,0.1,0.7,0l1.2-0.5
		l1.1,2.4l-1.5,0.6C540.5,449.2,539.6,449.2,538.8,448.8z M531.5,437.5l5.9-2.6l1,2.3l-5.9,2.6L531.5,437.5z"/>
	<path d="M550,445.2c0,0-0.4,0.1-1.1,0.2c-0.7,0.1-1.5,0.2-2.2,0.1c-0.7,0-1.4-0.2-2.1-0.4l0.7-2.5c0.9,0.2,1.8,0.3,2.6,0.3
		c0.8,0,1.6-0.2,2.2-0.5c1-0.4,1.7-0.9,2.1-1.5c0.4-0.5,0.4-1.1,0.1-1.7c-0.2-0.4-0.5-0.7-0.8-0.8c-0.4-0.1-0.8-0.1-1.2,0
		c-0.4,0.1-1,0.3-1.8,0.6c-0.1,0-0.1,0.1-0.2,0.1c-0.1,0-0.2,0.1-0.2,0.1c0,0-0.1,0-0.1,0c0,0-0.1,0-0.1,0c-0.9,0.3-1.6,0.5-2.3,0.6
		s-1.3,0-1.9-0.4c-0.6-0.3-1.1-0.9-1.5-1.9c-0.4-0.9-0.5-1.8-0.4-2.5c0.1-0.8,0.5-1.5,1.1-2.1s1.5-1.2,2.6-1.7
		c0.7-0.3,1.4-0.5,2-0.7c0.7-0.1,1.3-0.2,2-0.2c0.7,0,1.3,0.1,2,0.2l-0.7,2.5c-0.8-0.1-1.6-0.2-2.3-0.1c-0.7,0.1-1.4,0.2-2,0.5
		c-0.9,0.4-1.5,0.8-1.8,1.3c-0.3,0.5-0.3,1-0.1,1.6c0.2,0.4,0.4,0.6,0.7,0.6c0.3,0.1,0.7,0,1.1-0.1c0.4-0.1,1-0.3,1.7-0.5
		c0.1,0,0.1,0,0.2-0.1c0.1,0,0.1,0,0.2-0.1c0,0,0,0,0.1,0c0,0,0.1,0,0.1,0c0.9-0.3,1.8-0.6,2.5-0.6c0.7-0.1,1.4,0,2.1,0.4
		s1.2,1,1.7,2.1c0.4,0.9,0.5,1.8,0.4,2.6s-0.5,1.5-1.2,2.2c-0.7,0.7-1.6,1.3-2.8,1.8C550.4,445,550,445.2,550,445.2z"/>
</g>
<g>
	<g>
		<line fill="none" stroke="#666666" stroke-width="4" stroke-miterlimit="10" x1="1829.6" y1="1001" x2="1533.8" y2="1001"/>
		<g>
			<g>
				<polygon fill="#666666" points="1553.5,979 1536.4,1001 1553.5,1023 1501.4,1001 				"/>
				<polygon fill="#A3A3A3" points="1547.7,983.5 1506.9,1001 1533.5,1001 				"/>
				<polygon fill="#C9C9C9" points="1547.7,1018.5 1506.9,1001 1533.5,1001 				"/>
			</g>
		</g>
	</g>
</g>
<g>
	<g>
		<line fill="none" stroke="#666666" stroke-width="4" stroke-miterlimit="10" x1="1798.2" y1="925" x2="1502.4" y2="925"/>
		<g>
			<g>
				<polygon fill="#666666" points="1778.5,903 1795.6,925 1778.5,947 1830.6,925 				"/>
				<polygon fill="#A3A3A3" points="1784.3,907.5 1825.1,925 1798.5,925 				"/>
				<polygon fill="#C9C9C9" points="1784.3,942.5 1825.1,925 1798.5,925 				"/>
			</g>
		</g>
	</g>
</g>
<g>
	<path d="M1579.6,910.7c-0.7-0.5-1.3-1.1-1.7-2c-0.4-0.9-0.6-1.9-0.6-3.1v-3.1c0-1.2,0.2-2.3,0.6-3.1c0.4-0.9,0.9-1.5,1.6-2
		s1.6-0.7,2.6-0.7c0.8,0,1.6,0.2,2.3,0.7s1.3,1.1,1.7,1.8l-0.3,2.9c0-0.6-0.1-1.1-0.3-1.5c-0.2-0.4-0.5-0.8-1-1
		c-0.4-0.2-0.9-0.3-1.5-0.3c-0.9,0-1.6,0.3-2.1,0.9s-0.8,1.4-0.8,2.4v3.1c0,1,0.3,1.8,0.8,2.4s1.2,0.8,2.1,0.8
		c0.6,0,1.1-0.1,1.5-0.3s0.7-0.6,1-1s0.3-1,0.3-1.6l0.2,3c-0.3,0.7-0.7,1.3-1.4,1.8c-0.6,0.5-1.4,0.7-2.4,0.7
		C1581.2,911.4,1580.3,911.1,1579.6,910.7z M1585.8,896.9h2.8v20h-2.8V896.9z"/>
	<path d="M1595.6,905.5c0,1,0.3,1.8,0.8,2.3c0.5,0.5,1.2,0.8,2.1,0.8c0.9,0,1.6-0.2,2.1-0.7c0.5-0.5,0.8-1.2,0.8-2.1l0.2,3
		c-0.3,0.7-0.8,1.3-1.4,1.8c-0.7,0.5-1.5,0.7-2.4,0.7c-1.6,0-2.8-0.5-3.6-1.5c-0.9-1-1.3-2.4-1.3-4.3v-8.6h2.8V905.5z M1601.4,896.9
		h2.8v14.2h-2.8V896.9z"/>
	<path d="M1612.3,911.3c0,0-0.5-0.2-1.4-0.7s-1.6-1.2-2.1-2.2c-0.5-1-0.7-2.1-0.7-3.5v-1.6c0-1.4,0.2-2.6,0.7-3.6
		c0.5-1,1.2-1.8,2-2.3s2-0.8,3.2-0.8c1.2,0,2.2,0.3,3,0.9c0.8,0.6,1.5,1.4,1.9,2.6s0.7,2.5,0.7,4v0.9h-9.6v-2.2h6.9
		c-0.1-1.2-0.4-2.1-0.9-2.7s-1.2-1-2.1-1c-1.1,0-1.9,0.3-2.5,1c-0.6,0.7-0.9,1.7-0.9,2.9v1.8c0,1.2,0.3,2.1,0.9,2.7s1.5,0.9,2.6,0.9
		c0.6,0,1.1-0.1,1.7-0.3c0.6-0.2,1.1-0.5,1.5-1l1.8,1.8c-0.7,0.7-1.5,1.2-2.4,1.6s-1.8,0.6-2.6,0.6
		C1612.9,911.3,1612.3,911.3,1612.3,911.3z"/>
	<path d="M1623.4,896.9h2.8v14.2h-2.8V896.9z M1630.3,899.6c-0.4-0.2-0.8-0.2-1.3-0.2c-0.9,0-1.6,0.2-2.1,0.7
		c-0.5,0.5-0.7,1.2-0.7,2l-0.3-2.7c0.4-0.8,1-1.5,1.7-2c0.7-0.5,1.5-0.7,2.3-0.7c0.6,0,1.2,0.1,1.8,0.3c0.5,0.2,1,0.5,1.4,0.8
		l-1.8,2.5C1631,900,1630.7,899.8,1630.3,899.6z"/>
	<path d="M1633.9,896.9h2.8l4.4,12.3l-1.5,3L1633.9,896.9z M1646.4,896.9l-6,17.5c-0.2,0.6-0.5,1.2-0.9,1.5
		c-0.4,0.4-0.8,0.6-1.3,0.8s-1.2,0.2-1.9,0.2h-0.6v-2.7h0.6c0.5,0,0.9-0.1,1.2-0.3c0.3-0.2,0.6-0.6,0.8-1.1l5.3-16H1646.4z"/>
	<path d="M1655.5,910.7c-0.7-0.5-1.3-1.1-1.7-2c-0.4-0.9-0.6-1.9-0.6-3.1v-3.1c0-1.2,0.2-2.3,0.6-3.1c0.4-0.9,0.9-1.5,1.6-2
		s1.6-0.7,2.6-0.7c0.8,0,1.6,0.2,2.3,0.7s1.3,1.1,1.7,1.8l-0.3,2.9c0-0.6-0.1-1.1-0.3-1.5c-0.2-0.4-0.5-0.8-1-1
		c-0.4-0.2-0.9-0.3-1.5-0.3c-0.9,0-1.6,0.3-2.1,0.9s-0.8,1.4-0.8,2.4v3.1c0,1,0.3,1.8,0.8,2.4s1.2,0.8,2.1,0.8
		c0.6,0,1.1-0.1,1.5-0.3s0.7-0.6,1-1s0.3-1,0.3-1.6l0.2,3c-0.3,0.7-0.7,1.3-1.4,1.8c-0.6,0.5-1.4,0.7-2.4,0.7
		C1657.1,911.4,1656.3,911.1,1655.5,910.7z M1661.8,891.2h2.8v19.9h-2.8V891.2z"/>
	<path d="M1669.4,910.2c-0.9-0.7-1.3-1.8-1.3-3.3c0-1.4,0.4-2.5,1.2-3.2c0.8-0.7,2-1.1,3.6-1.1h4l0.2,2.2h-4.2
		c-0.7,0-1.3,0.2-1.6,0.5c-0.4,0.3-0.5,0.8-0.5,1.5c0,0.7,0.2,1.3,0.7,1.6c0.5,0.3,1.2,0.5,2.2,0.5c1.1,0,1.9-0.1,2.4-0.3
		c0.5-0.2,0.8-0.6,0.8-1.1l0.3,2c-0.2,0.4-0.5,0.7-0.9,0.9s-0.8,0.4-1.3,0.6s-1,0.2-1.6,0.2C1671.6,911.3,1670.3,910.9,1669.4,910.2
		z M1676.8,902.1c0-0.9-0.2-1.7-0.7-2.2c-0.5-0.5-1.2-0.8-2.1-0.8c-0.6,0-1.1,0.1-1.7,0.3c-0.5,0.2-1,0.4-1.4,0.7l-2-1.4
		c0.5-0.6,1.2-1.2,2.1-1.5c0.9-0.4,1.9-0.5,2.9-0.5c1.2,0,2.2,0.2,3,0.6c0.8,0.4,1.5,1,1.9,1.8c0.4,0.8,0.7,1.7,0.7,2.8v9.1h-2.7
		V902.1z"/>
	<path d="M1682.6,896.9h6.4v2.5h-6.4V896.9z M1684.9,910.2c-0.5-0.6-0.8-1.6-0.8-2.8v-14.6h2.8v14.7c0,0.3,0.1,0.6,0.2,0.8
		c0.1,0.2,0.3,0.3,0.6,0.3h1.3v2.7h-1.6C1686.2,911.2,1685.4,910.9,1684.9,910.2z"/>
	<path d="M1693.4,910.2c-0.9-0.7-1.3-1.8-1.3-3.3c0-1.4,0.4-2.5,1.2-3.2c0.8-0.7,2-1.1,3.6-1.1h4l0.2,2.2h-4.2
		c-0.7,0-1.3,0.2-1.6,0.5c-0.4,0.3-0.5,0.8-0.5,1.5c0,0.7,0.2,1.3,0.7,1.6c0.5,0.3,1.2,0.5,2.2,0.5c1.1,0,1.9-0.1,2.4-0.3
		c0.5-0.2,0.8-0.6,0.8-1.1l0.3,2c-0.2,0.4-0.5,0.7-0.9,0.9s-0.8,0.4-1.3,0.6s-1,0.2-1.6,0.2C1695.6,911.3,1694.3,910.9,1693.4,910.2
		z M1700.8,902.1c0-0.9-0.2-1.7-0.7-2.2c-0.5-0.5-1.2-0.8-2.1-0.8c-0.6,0-1.1,0.1-1.7,0.3c-0.5,0.2-1,0.4-1.4,0.7l-2-1.4
		c0.5-0.6,1.2-1.2,2.1-1.5c0.9-0.4,1.9-0.5,2.9-0.5c1.2,0,2.2,0.2,3,0.6c0.8,0.4,1.5,1,1.9,1.8c0.4,0.8,0.7,1.7,0.7,2.8v9.1h-2.7
		V902.1z"/>
</g>
<g>
	<path d="M1602.2,1018.9h2.8v14.2h-2.8V1018.9z M1609.1,1021.6c-0.4-0.2-0.8-0.2-1.3-0.2c-0.9,0-1.6,0.2-2.1,0.7
		c-0.5,0.5-0.7,1.2-0.7,2l-0.3-2.7c0.4-0.8,1-1.5,1.7-2c0.7-0.5,1.5-0.7,2.3-0.7c0.6,0,1.2,0.1,1.8,0.3c0.5,0.2,1,0.5,1.4,0.8
		l-1.8,2.5C1609.8,1022,1609.5,1021.8,1609.1,1021.6z"/>
	<path d="M1617.8,1033.3c0,0-0.5-0.2-1.4-0.7s-1.6-1.2-2.1-2.2c-0.5-1-0.7-2.1-0.7-3.5v-1.6c0-1.4,0.2-2.6,0.7-3.6
		c0.5-1,1.2-1.8,2-2.3s2-0.8,3.2-0.8c1.2,0,2.2,0.3,3,0.9c0.8,0.6,1.5,1.4,1.9,2.6s0.7,2.5,0.7,4v0.9h-9.6v-2.2h6.9
		c-0.1-1.2-0.4-2.1-0.9-2.7s-1.2-1-2.1-1c-1.1,0-1.9,0.3-2.5,1c-0.6,0.7-0.9,1.7-0.9,2.9v1.8c0,1.2,0.3,2.1,0.9,2.7s1.5,0.9,2.6,0.9
		c0.6,0,1.1-0.1,1.7-0.3c0.6-0.2,1.1-0.5,1.5-1l1.8,1.8c-0.7,0.7-1.5,1.2-2.4,1.6s-1.8,0.6-2.6,0.6
		C1618.4,1033.3,1617.8,1033.3,1617.8,1033.3z"/>
	<path d="M1627.8,1018.9h6.4v2.5h-6.4V1018.9z M1630.1,1032.2c-0.5-0.6-0.8-1.6-0.8-2.8v-14.6h2.8v14.7c0,0.3,0.1,0.6,0.2,0.8
		c0.1,0.2,0.3,0.3,0.6,0.3h1.3v2.7h-1.6C1631.5,1033.2,1630.6,1032.9,1630.1,1032.2z"/>
	<path d="M1640.9,1027.5c0,1,0.3,1.8,0.8,2.3c0.5,0.5,1.2,0.8,2.1,0.8c0.9,0,1.6-0.2,2.1-0.7c0.5-0.5,0.8-1.2,0.8-2.1l0.2,3
		c-0.3,0.7-0.8,1.3-1.4,1.8c-0.7,0.5-1.5,0.7-2.4,0.7c-1.6,0-2.8-0.5-3.6-1.5c-0.9-1-1.3-2.4-1.3-4.3v-8.6h2.8V1027.5z
		 M1646.6,1018.9h2.8v14.2h-2.8V1018.9z"/>
	<path d="M1653.6,1018.9h2.8v14.2h-2.8V1018.9z M1660.5,1021.6c-0.4-0.2-0.8-0.2-1.3-0.2c-0.9,0-1.6,0.2-2.1,0.7
		c-0.5,0.5-0.7,1.2-0.7,2l-0.3-2.7c0.4-0.8,1-1.5,1.7-2c0.7-0.5,1.5-0.7,2.3-0.7c0.6,0,1.2,0.1,1.8,0.3c0.5,0.2,1,0.5,1.4,0.8
		l-1.8,2.5C1661.2,1022,1660.9,1021.8,1660.5,1021.6z"/>
	<path d="M1665.6,1018.9h2.8v14.2h-2.8V1018.9z M1674.2,1024.5c0-1-0.3-1.8-0.8-2.3s-1.2-0.8-2.2-0.8c-0.9,0-1.6,0.2-2.1,0.7
		c-0.5,0.5-0.7,1.2-0.7,2l-0.3-2.7c0.4-0.9,1-1.5,1.7-2s1.5-0.7,2.3-0.7c1.5,0,2.7,0.5,3.6,1.5c0.8,1,1.3,2.4,1.3,4.3v8.6h-2.8
		V1024.5z"/>
	<path d="M1686,1018.9h2.8v14.2h-2.8V1018.9z M1692.9,1021.6c-0.4-0.2-0.8-0.2-1.3-0.2c-0.9,0-1.6,0.2-2.1,0.7
		c-0.5,0.5-0.7,1.2-0.7,2l-0.3-2.7c0.4-0.8,1-1.5,1.7-2c0.7-0.5,1.5-0.7,2.3-0.7c0.6,0,1.2,0.1,1.8,0.3c0.5,0.2,1,0.5,1.4,0.8
		l-1.8,2.5C1693.6,1022,1693.3,1021.8,1692.9,1021.6z"/>
	<path d="M1701.5,1033.3c0,0-0.5-0.2-1.4-0.7s-1.6-1.2-2.1-2.2c-0.5-1-0.7-2.1-0.7-3.5v-1.6c0-1.4,0.2-2.6,0.7-3.6
		c0.5-1,1.2-1.8,2-2.3s2-0.8,3.2-0.8c1.2,0,2.2,0.3,3,0.9c0.8,0.6,1.5,1.4,1.9,2.6s0.7,2.5,0.7,4v0.9h-9.6v-2.2h6.9
		c-0.1-1.2-0.4-2.1-0.9-2.7s-1.2-1-2.1-1c-1.1,0-1.9,0.3-2.5,1c-0.6,0.7-0.9,1.7-0.9,2.9v1.8c0,1.2,0.3,2.1,0.9,2.7s1.5,0.9,2.6,0.9
		c0.6,0,1.1-0.1,1.7-0.3c0.6-0.2,1.1-0.5,1.5-1l1.8,1.8c-0.7,0.7-1.5,1.2-2.4,1.6s-1.8,0.6-2.6,0.6
		C1702.2,1033.3,1701.5,1033.3,1701.5,1033.3z"/>
	<path d="M1716.5,1033.3c0,0-0.4-0.1-1.1-0.2s-1.4-0.4-2.1-0.7s-1.2-0.7-1.8-1.2l1.7-2c0.8,0.6,1.5,1,2.3,1.3
		c0.8,0.3,1.5,0.4,2.2,0.4c1.1,0,1.9-0.2,2.5-0.5s0.8-0.9,0.8-1.5c0-0.5-0.2-0.8-0.5-1c-0.3-0.2-0.7-0.4-1.1-0.5
		c-0.4-0.1-1.1-0.1-1.9-0.2c-0.1,0-0.2,0-0.2,0c-0.1,0-0.2,0-0.2,0c0,0-0.1,0-0.1,0c0,0-0.1,0-0.1,0c-0.9-0.1-1.7-0.2-2.3-0.4
		c-0.6-0.2-1.2-0.6-1.6-1.1c-0.4-0.5-0.6-1.3-0.6-2.3c0-1,0.2-1.8,0.6-2.5c0.4-0.7,1-1.2,1.8-1.5c0.8-0.3,1.8-0.5,3-0.5
		c0.7,0,1.4,0.1,2.1,0.2s1.3,0.3,1.9,0.6c0.6,0.3,1.2,0.6,1.8,1l-1.7,2c-0.7-0.5-1.4-0.8-2.1-1c-0.7-0.2-1.4-0.3-2-0.3
		c-0.9,0-1.7,0.2-2.1,0.5c-0.5,0.3-0.7,0.8-0.7,1.5c0,0.4,0.1,0.7,0.4,0.9s0.6,0.3,1,0.4c0.4,0.1,1,0.1,1.8,0.2c0.1,0,0.1,0,0.2,0
		s0.1,0,0.2,0c0,0,0.1,0,0.1,0s0.1,0,0.1,0c1,0.1,1.8,0.2,2.5,0.4c0.7,0.2,1.3,0.6,1.8,1.2c0.5,0.6,0.7,1.4,0.7,2.6
		c0,1-0.2,1.9-0.7,2.5s-1.1,1.2-2,1.5c-0.9,0.3-2,0.5-3.3,0.5C1716.9,1033.3,1716.5,1033.3,1716.5,1033.3z"/>
	<path d="M1730,1027.5c0,1,0.3,1.8,0.8,2.3c0.5,0.5,1.2,0.8,2.1,0.8c0.9,0,1.6-0.2,2.1-0.7c0.5-0.5,0.8-1.2,0.8-2.1l0.2,3
		c-0.3,0.7-0.8,1.3-1.4,1.8c-0.7,0.5-1.5,0.7-2.4,0.7c-1.6,0-2.8-0.5-3.6-1.5c-0.9-1-1.3-2.4-1.3-4.3v-8.6h2.8V1027.5z
		 M1735.8,1018.9h2.8v14.2h-2.8V1018.9z"/>
	<path d="M1745.6,1029.4c0,0.3,0.1,0.6,0.2,0.8c0.2,0.2,0.4,0.3,0.6,0.3h1.3v2.7h-1.6c-1.1,0-1.9-0.3-2.5-1s-0.9-1.6-0.9-2.8v-16.2
		h2.8V1029.4z"/>
	<path d="M1749.8,1018.9h6.4v2.5h-6.4V1018.9z M1752.1,1032.2c-0.5-0.6-0.8-1.6-0.8-2.8v-14.6h2.8v14.7c0,0.3,0.1,0.6,0.2,0.8
		c0.1,0.2,0.3,0.3,0.6,0.3h1.3v2.7h-1.6C1753.4,1033.2,1752.6,1032.9,1752.1,1032.2z"/>
	<path d="M1763.8,1033.3c0,0-0.4-0.1-1.1-0.2s-1.4-0.4-2.1-0.7s-1.2-0.7-1.8-1.2l1.7-2c0.8,0.6,1.5,1,2.3,1.3
		c0.8,0.3,1.5,0.4,2.2,0.4c1.1,0,1.9-0.2,2.5-0.5s0.8-0.9,0.8-1.5c0-0.5-0.2-0.8-0.5-1c-0.3-0.2-0.7-0.4-1.1-0.5
		c-0.4-0.1-1.1-0.1-1.9-0.2c-0.1,0-0.2,0-0.2,0c-0.1,0-0.2,0-0.2,0c0,0-0.1,0-0.1,0c0,0-0.1,0-0.1,0c-0.9-0.1-1.7-0.2-2.3-0.4
		c-0.6-0.2-1.2-0.6-1.6-1.1c-0.4-0.5-0.6-1.3-0.6-2.3c0-1,0.2-1.8,0.6-2.5c0.4-0.7,1-1.2,1.8-1.5c0.8-0.3,1.8-0.5,3-0.5
		c0.7,0,1.4,0.1,2.1,0.2s1.3,0.3,1.9,0.6c0.6,0.3,1.2,0.6,1.8,1l-1.7,2c-0.7-0.5-1.4-0.8-2.1-1c-0.7-0.2-1.4-0.3-2-0.3
		c-0.9,0-1.7,0.2-2.1,0.5c-0.5,0.3-0.7,0.8-0.7,1.5c0,0.4,0.1,0.7,0.4,0.9s0.6,0.3,1,0.4c0.4,0.1,1,0.1,1.8,0.2c0.1,0,0.1,0,0.2,0
		s0.1,0,0.2,0c0,0,0.1,0,0.1,0s0.1,0,0.1,0c1,0.1,1.8,0.2,2.5,0.4c0.7,0.2,1.3,0.6,1.8,1.2c0.5,0.6,0.7,1.4,0.7,2.6
		c0,1-0.2,1.9-0.7,2.5s-1.1,1.2-2,1.5c-0.9,0.3-2,0.5-3.3,0.5C1764.2,1033.3,1763.8,1033.3,1763.8,1033.3z"/>
</g>
<g>
	<g>
		<line fill="none" stroke="#666666" stroke-width="4" stroke-miterlimit="10" x1="1242.6" y1="1001" x2="946.8" y2="1001"/>
		<g>
			<g>
				<polygon fill="#666666" points="966.5,979 949.4,1001 966.5,1023 914.4,1001 				"/>
				<polygon fill="#A3A3A3" points="960.7,983.5 919.9,1001 946.5,1001 				"/>
				<polygon fill="#C9C9C9" points="960.7,1018.5 919.9,1001 946.5,1001 				"/>
			</g>
		</g>
	</g>
</g>
<g>
	<g>
		<line fill="none" stroke="#666666" stroke-width="4" stroke-miterlimit="10" x1="1211.2" y1="925" x2="915.4" y2="925"/>
		<g>
			<g>
				<polygon fill="#666666" points="1191.5,903 1208.6,925 1191.5,947 1243.6,925 				"/>
				<polygon fill="#A3A3A3" points="1197.3,907.5 1238.1,925 1211.5,925 				"/>
				<polygon fill="#C9C9C9" points="1197.3,942.5 1238.1,925 1211.5,925 				"/>
			</g>
		</g>
	</g>
</g>
<g>
	<path d="M948.4,891.2h2.4l7.3,19.9h-3l-5.5-16l-5.5,16h-3L948.4,891.2z M944.5,904.1H955v2.7h-10.5V904.1z"/>
	<path d="M961.2,891.2h2.8v19.9h-2.8V891.2z M962.6,900.7h6.4c0.6,0,1.1-0.1,1.6-0.4c0.5-0.3,0.8-0.7,1.1-1.2s0.4-1.1,0.4-1.8
		c0-0.7-0.1-1.3-0.4-1.8s-0.6-0.9-1.1-1.2s-1-0.4-1.6-0.4h-6.4v-2.7h6.3c1.2,0,2.2,0.3,3.1,0.8s1.6,1.2,2.1,2.1
		c0.5,0.9,0.7,2,0.7,3.2c0,1.2-0.2,2.3-0.7,3.2s-1.2,1.6-2.1,2.1c-0.9,0.5-1.9,0.8-3.1,0.8h-6.3V900.7z"/>
	<path d="M981.4,911.1h-2.8v-19.9h2.8V911.1z"/>
	<path d="M990.8,896.9h2.8v14.2h-2.8V896.9z M997.7,899.6c-0.4-0.2-0.8-0.2-1.3-0.2c-0.9,0-1.6,0.2-2.1,0.7c-0.5,0.5-0.7,1.2-0.7,2
		l-0.3-2.7c0.4-0.8,1-1.5,1.7-2c0.7-0.5,1.5-0.7,2.3-0.7c0.6,0,1.2,0.1,1.8,0.3c0.5,0.2,1,0.5,1.4,0.8l-1.8,2.5
		C998.4,900,998.1,899.8,997.7,899.6z"/>
	<path d="M1006.3,911.3c0,0-0.5-0.2-1.4-0.7s-1.6-1.2-2.1-2.2c-0.5-1-0.7-2.1-0.7-3.5v-1.6c0-1.4,0.2-2.6,0.7-3.6
		c0.5-1,1.2-1.8,2-2.3s2-0.8,3.2-0.8c1.2,0,2.2,0.3,3,0.9c0.8,0.6,1.5,1.4,1.9,2.6s0.7,2.5,0.7,4v0.9h-9.6v-2.2h6.9
		c-0.1-1.2-0.4-2.1-0.9-2.7s-1.2-1-2.1-1c-1.1,0-1.9,0.3-2.5,1c-0.6,0.7-0.9,1.7-0.9,2.9v1.8c0,1.2,0.3,2.1,0.9,2.7s1.5,0.9,2.6,0.9
		c0.6,0,1.1-0.1,1.7-0.3c0.6-0.2,1.1-0.5,1.5-1l1.8,1.8c-0.7,0.7-1.5,1.2-2.4,1.6s-1.8,0.6-2.6,0.6
		C1007,911.3,1006.3,911.3,1006.3,911.3z"/>
	<path d="M1019.3,910.7c-0.7-0.5-1.3-1.1-1.7-2c-0.4-0.9-0.6-1.9-0.6-3.1v-3.1c0-1.2,0.2-2.3,0.6-3.1c0.4-0.9,0.9-1.5,1.6-2
		s1.6-0.7,2.6-0.7c0.8,0,1.6,0.2,2.3,0.7s1.3,1.1,1.7,1.8l-0.3,2.9c0-0.6-0.1-1.1-0.3-1.5c-0.2-0.4-0.5-0.8-1-1
		c-0.4-0.2-0.9-0.3-1.5-0.3c-0.9,0-1.6,0.3-2.1,0.9s-0.8,1.4-0.8,2.4v3.1c0,1,0.3,1.8,0.8,2.4s1.2,0.8,2.1,0.8
		c0.6,0,1.1-0.1,1.5-0.3s0.7-0.6,1-1s0.3-1,0.3-1.6l0.2,3c-0.3,0.7-0.7,1.3-1.4,1.8c-0.6,0.5-1.4,0.7-2.4,0.7
		C1021,911.4,1020.1,911.1,1019.3,910.7z M1025.6,896.9h2.8v20h-2.8V896.9z"/>
	<path d="M1035.4,905.5c0,1,0.3,1.8,0.8,2.3c0.5,0.5,1.2,0.8,2.1,0.8c0.9,0,1.6-0.2,2.1-0.7c0.5-0.5,0.8-1.2,0.8-2.1l0.2,3
		c-0.3,0.7-0.8,1.3-1.4,1.8c-0.7,0.5-1.5,0.7-2.4,0.7c-1.6,0-2.8-0.5-3.6-1.5c-0.9-1-1.3-2.4-1.3-4.3v-8.6h2.8V905.5z M1041.2,896.9
		h2.8v14.2h-2.8V896.9z"/>
	<path d="M1052,911.3c0,0-0.5-0.2-1.4-0.7s-1.6-1.2-2.1-2.2c-0.5-1-0.7-2.1-0.7-3.5v-1.6c0-1.4,0.2-2.6,0.7-3.6c0.5-1,1.2-1.8,2-2.3
		s2-0.8,3.2-0.8c1.2,0,2.2,0.3,3,0.9c0.8,0.6,1.5,1.4,1.9,2.6s0.7,2.5,0.7,4v0.9h-9.6v-2.2h6.9c-0.1-1.2-0.4-2.1-0.9-2.7
		s-1.2-1-2.1-1c-1.1,0-1.9,0.3-2.5,1c-0.6,0.7-0.9,1.7-0.9,2.9v1.8c0,1.2,0.3,2.1,0.9,2.7s1.5,0.9,2.6,0.9c0.6,0,1.1-0.1,1.7-0.3
		c0.6-0.2,1.1-0.5,1.5-1l1.8,1.8c-0.7,0.7-1.5,1.2-2.4,1.6s-1.8,0.6-2.6,0.6C1052.7,911.3,1052,911.3,1052,911.3z"/>
	<path d="M1066.9,911.3c0,0-0.4-0.1-1.1-0.2s-1.4-0.4-2.1-0.7s-1.2-0.7-1.8-1.2l1.7-2c0.8,0.6,1.5,1,2.3,1.3
		c0.8,0.3,1.5,0.4,2.2,0.4c1.1,0,1.9-0.2,2.5-0.5s0.8-0.9,0.8-1.5c0-0.5-0.2-0.8-0.5-1c-0.3-0.2-0.7-0.4-1.1-0.5
		c-0.4-0.1-1.1-0.1-1.9-0.2c-0.1,0-0.2,0-0.2,0c-0.1,0-0.2,0-0.2,0c0,0-0.1,0-0.1,0c0,0-0.1,0-0.1,0c-0.9-0.1-1.7-0.2-2.3-0.4
		c-0.6-0.2-1.2-0.6-1.6-1.1c-0.4-0.5-0.6-1.3-0.6-2.3c0-1,0.2-1.8,0.6-2.5c0.4-0.7,1-1.2,1.8-1.5c0.8-0.3,1.8-0.5,3-0.5
		c0.7,0,1.4,0.1,2.1,0.2s1.3,0.3,1.9,0.6c0.6,0.3,1.2,0.6,1.8,1l-1.7,2c-0.7-0.5-1.4-0.8-2.1-1c-0.7-0.2-1.4-0.3-2-0.3
		c-0.9,0-1.7,0.2-2.1,0.5c-0.5,0.3-0.7,0.8-0.7,1.5c0,0.4,0.1,0.7,0.4,0.9s0.6,0.3,1,0.4c0.4,0.1,1,0.1,1.8,0.2c0.1,0,0.1,0,0.2,0
		s0.1,0,0.2,0c0,0,0.1,0,0.1,0s0.1,0,0.1,0c1,0.1,1.8,0.2,2.5,0.4c0.7,0.2,1.3,0.6,1.8,1.2c0.5,0.6,0.7,1.4,0.7,2.6
		c0,1-0.2,1.9-0.7,2.5s-1.1,1.2-2,1.5c-0.9,0.3-2,0.5-3.3,0.5C1067.4,911.3,1066.9,911.3,1066.9,911.3z"/>
	<path d="M1076.6,896.9h6.4v2.5h-6.4V896.9z M1078.9,910.2c-0.5-0.6-0.8-1.6-0.8-2.8v-14.6h2.8v14.7c0,0.3,0.1,0.6,0.2,0.8
		c0.1,0.2,0.3,0.3,0.6,0.3h1.3v2.7h-1.6C1080.2,911.2,1079.4,910.9,1078.9,910.2z"/>
	<path d="M1091.6,896.9h2.8v20h-2.8V896.9z M1095.7,910.7c-0.7-0.4-1.1-1-1.4-1.8l0.2-3c0,0.6,0.1,1.1,0.3,1.6c0.2,0.4,0.5,0.8,1,1
		c0.4,0.2,0.9,0.3,1.5,0.3c0.9,0,1.6-0.3,2.1-0.8s0.8-1.4,0.8-2.4v-3.1c0-1-0.3-1.8-0.8-2.4s-1.2-0.9-2.1-0.9
		c-0.6,0-1.1,0.1-1.5,0.3s-0.7,0.5-1,1s-0.3,0.9-0.3,1.5l-0.3-2.7c0.4-0.8,1-1.5,1.7-1.9s1.5-0.7,2.3-0.7c1,0,1.9,0.2,2.6,0.7
		s1.3,1.1,1.6,2c0.4,0.9,0.6,1.9,0.6,3.1v3.1c0,1.2-0.2,2.2-0.6,3.1c-0.4,0.9-0.9,1.5-1.7,2s-1.6,0.7-2.7,0.7
		C1097.1,911.3,1096.3,911.1,1095.7,910.7z"/>
	<path d="M1106.8,896.9h2.8v14.2h-2.8V896.9z M1113.7,899.6c-0.4-0.2-0.8-0.2-1.3-0.2c-0.9,0-1.6,0.2-2.1,0.7
		c-0.5,0.5-0.7,1.2-0.7,2l-0.3-2.7c0.4-0.8,1-1.5,1.7-2c0.7-0.5,1.5-0.7,2.3-0.7c0.6,0,1.2,0.1,1.8,0.3c0.5,0.2,1,0.5,1.4,0.8
		l-1.8,2.5C1114.4,900,1114.1,899.8,1113.7,899.6z"/>
	<path d="M1120.8,910.6c-0.9-0.5-1.5-1.2-2-2.1c-0.5-0.9-0.7-2-0.7-3.3v-2.3c0-1.3,0.2-2.4,0.7-3.3s1.1-1.6,2-2.1s1.9-0.7,3.2-0.7
		s2.3,0.2,3.2,0.7s1.5,1.2,2,2.1s0.7,2,0.7,3.3v2.4c0,1.3-0.2,2.4-0.7,3.3s-1.1,1.6-2,2.1c-0.9,0.5-1.9,0.7-3.2,0.7
		S1121.7,911.1,1120.8,910.6z M1126.2,907.7c0.5-0.6,0.8-1.5,0.8-2.6v-2.4c0-1.1-0.3-2-0.8-2.6s-1.3-0.9-2.3-0.9s-1.7,0.3-2.3,0.9
		s-0.8,1.5-0.8,2.6v2.4c0,1.1,0.3,2,0.8,2.6c0.5,0.6,1.3,0.9,2.3,0.9S1125.7,908.4,1126.2,907.7z"/>
	<path d="M1137.8,903.3l1.3,2.6l-3.6,5.3h-3.1L1137.8,903.3z M1137.9,904.7l-5.2-7.7h3.1l4.1,6.4l5.4,7.8h-3.1L1137.9,904.7z
		 M1138.8,901.9l3.1-5h3.1l-5,7.7L1138.8,901.9z"/>
	<path d="M1146.8,896.9h2.8l4.4,12.3l-1.5,3L1146.8,896.9z M1159.3,896.9l-6,17.5c-0.2,0.6-0.5,1.2-0.9,1.5
		c-0.4,0.4-0.8,0.6-1.3,0.8s-1.2,0.2-1.9,0.2h-0.6v-2.7h0.6c0.5,0,0.9-0.1,1.2-0.3c0.3-0.2,0.6-0.6,0.8-1.1l5.3-16H1159.3z"/>
</g>
<g>
	<path d="M1013.2,1018.9h7.1v2.4h-7.1V1018.9z M1014.7,1017c0-1.3,0.3-2.2,0.9-2.8c0.6-0.6,1.5-0.9,2.7-0.9h2.1v2.7h-2
		c-0.3,0-0.5,0.1-0.6,0.3c-0.1,0.2-0.2,0.5-0.2,0.8v16.1h-2.8V1017z"/>
	<path d="M1025,1032.6c-0.9-0.5-1.5-1.2-2-2.1c-0.5-0.9-0.7-2-0.7-3.3v-2.3c0-1.3,0.2-2.4,0.7-3.3s1.1-1.6,2-2.1s1.9-0.7,3.2-0.7
		s2.3,0.2,3.2,0.7s1.5,1.2,2,2.1s0.7,2,0.7,3.3v2.4c0,1.3-0.2,2.4-0.7,3.3s-1.1,1.6-2,2.1c-0.9,0.5-1.9,0.7-3.2,0.7
		S1025.9,1033.1,1025,1032.6z M1030.4,1029.7c0.5-0.6,0.8-1.5,0.8-2.6v-2.4c0-1.1-0.3-2-0.8-2.6s-1.3-0.9-2.3-0.9s-1.7,0.3-2.3,0.9
		s-0.8,1.5-0.8,2.6v2.4c0,1.1,0.3,2,0.8,2.6c0.5,0.6,1.3,0.9,2.3,0.9S1029.9,1030.4,1030.4,1029.7z"/>
	<path d="M1038,1018.9h2.8v14.2h-2.8V1018.9z M1044.8,1021.6c-0.4-0.2-0.8-0.2-1.3-0.2c-0.9,0-1.6,0.2-2.1,0.7
		c-0.5,0.5-0.7,1.2-0.7,2l-0.3-2.7c0.4-0.8,1-1.5,1.7-2c0.7-0.5,1.5-0.7,2.3-0.7c0.6,0,1.2,0.1,1.8,0.3c0.5,0.2,1,0.5,1.4,0.8
		l-1.8,2.5C1045.5,1022,1045.2,1021.8,1044.8,1021.6z"/>
	<path d="M1048.7,1018.9h2.9l2.5,10.1l3.5-10.1h1.9l3.5,10.1l2.5-10.1h2.9l-4.4,14.2h-2.1l-3.5-9.8l-3.5,9.8h-2.1L1048.7,1018.9z"/>
	<path d="M1072.2,1032.2c-0.9-0.7-1.3-1.8-1.3-3.3c0-1.4,0.4-2.5,1.2-3.2c0.8-0.7,2-1.1,3.6-1.1h4l0.2,2.2h-4.2
		c-0.7,0-1.3,0.2-1.6,0.5c-0.4,0.3-0.5,0.8-0.5,1.5c0,0.7,0.2,1.3,0.7,1.6c0.5,0.3,1.2,0.5,2.2,0.5c1.1,0,1.9-0.1,2.4-0.3
		c0.5-0.2,0.8-0.6,0.8-1.1l0.3,2c-0.2,0.4-0.5,0.7-0.9,0.9s-0.8,0.4-1.3,0.6s-1,0.2-1.6,0.2
		C1074.4,1033.3,1073.1,1033,1072.2,1032.2z M1079.6,1024.1c0-0.9-0.2-1.7-0.7-2.2c-0.5-0.5-1.2-0.8-2.1-0.8c-0.6,0-1.1,0.1-1.7,0.3
		c-0.5,0.2-1,0.4-1.4,0.7l-2-1.4c0.5-0.6,1.2-1.2,2.1-1.5c0.9-0.4,1.9-0.5,2.9-0.5c1.2,0,2.2,0.2,3,0.6c0.8,0.4,1.5,1,1.9,1.8
		c0.4,0.8,0.7,1.7,0.7,2.8v9.1h-2.7V1024.1z"/>
	<path d="M1086.5,1018.9h2.8v14.2h-2.8V1018.9z M1093.4,1021.6c-0.4-0.2-0.8-0.2-1.3-0.2c-0.9,0-1.6,0.2-2.1,0.7
		c-0.5,0.5-0.7,1.2-0.7,2l-0.3-2.7c0.4-0.8,1-1.5,1.7-2c0.7-0.5,1.5-0.7,2.3-0.7c0.6,0,1.2,0.1,1.8,0.3c0.5,0.2,1,0.5,1.4,0.8
		l-1.8,2.5C1094,1022,1093.7,1021.8,1093.4,1021.6z"/>
	<path d="M1100,1032.7c-0.7-0.5-1.3-1.1-1.7-2c-0.4-0.9-0.6-1.9-0.6-3.1v-3.1c0-1.2,0.2-2.3,0.6-3.1c0.4-0.9,0.9-1.5,1.6-2
		s1.6-0.7,2.6-0.7c0.8,0,1.6,0.2,2.3,0.7s1.3,1.1,1.7,1.8l-0.3,2.9c0-0.6-0.1-1.1-0.3-1.5c-0.2-0.4-0.5-0.8-1-1
		c-0.4-0.2-0.9-0.3-1.5-0.3c-0.9,0-1.6,0.3-2.1,0.9s-0.8,1.4-0.8,2.4v3.1c0,1,0.3,1.8,0.8,2.4s1.2,0.8,2.1,0.8
		c0.6,0,1.1-0.1,1.5-0.3s0.7-0.6,1-1s0.3-1,0.3-1.6l0.2,3c-0.3,0.7-0.7,1.3-1.4,1.8c-0.6,0.5-1.4,0.7-2.4,0.7
		C1101.6,1033.4,1100.7,1033.1,1100,1032.7z M1106.2,1013.2h2.8v19.9h-2.8V1013.2z"/>
	<path d="M1118,1018.9h2.8v14.2h-2.8V1018.9z M1124.9,1021.6c-0.4-0.2-0.8-0.2-1.3-0.2c-0.9,0-1.6,0.2-2.1,0.7
		c-0.5,0.5-0.7,1.2-0.7,2l-0.3-2.7c0.4-0.8,1-1.5,1.7-2c0.7-0.5,1.5-0.7,2.3-0.7c0.6,0,1.2,0.1,1.8,0.3c0.5,0.2,1,0.5,1.4,0.8
		l-1.8,2.5C1125.6,1022,1125.3,1021.8,1124.9,1021.6z"/>
	<path d="M1133.5,1033.3c0,0-0.5-0.2-1.4-0.7s-1.6-1.2-2.1-2.2c-0.5-1-0.7-2.1-0.7-3.5v-1.6c0-1.4,0.2-2.6,0.7-3.6
		c0.5-1,1.2-1.8,2-2.3s2-0.8,3.2-0.8c1.2,0,2.2,0.3,3,0.9c0.8,0.6,1.5,1.4,1.9,2.6s0.7,2.5,0.7,4v0.9h-9.6v-2.2h6.9
		c-0.1-1.2-0.4-2.1-0.9-2.7s-1.2-1-2.1-1c-1.1,0-1.9,0.3-2.5,1c-0.6,0.7-0.9,1.7-0.9,2.9v1.8c0,1.2,0.3,2.1,0.9,2.7s1.5,0.9,2.6,0.9
		c0.6,0,1.1-0.1,1.7-0.3c0.6-0.2,1.1-0.5,1.5-1l1.8,1.8c-0.7,0.7-1.5,1.2-2.4,1.6s-1.8,0.6-2.6,0.6
		C1134.2,1033.3,1133.5,1033.3,1133.5,1033.3z"/>
	<path d="M1148.5,1033.3c0,0-0.4-0.1-1.1-0.2s-1.4-0.4-2.1-0.7s-1.2-0.7-1.8-1.2l1.7-2c0.8,0.6,1.5,1,2.3,1.3
		c0.8,0.3,1.5,0.4,2.2,0.4c1.1,0,1.9-0.2,2.5-0.5s0.8-0.9,0.8-1.5c0-0.5-0.2-0.8-0.5-1c-0.3-0.2-0.7-0.4-1.1-0.5
		c-0.4-0.1-1.1-0.1-1.9-0.2c-0.1,0-0.2,0-0.2,0c-0.1,0-0.2,0-0.2,0c0,0-0.1,0-0.1,0c0,0-0.1,0-0.1,0c-0.9-0.1-1.7-0.2-2.3-0.4
		c-0.6-0.2-1.2-0.6-1.6-1.1c-0.4-0.5-0.6-1.3-0.6-2.3c0-1,0.2-1.8,0.6-2.5c0.4-0.7,1-1.2,1.8-1.5c0.8-0.3,1.8-0.5,3-0.5
		c0.7,0,1.4,0.1,2.1,0.2s1.3,0.3,1.9,0.6c0.6,0.3,1.2,0.6,1.8,1l-1.7,2c-0.7-0.5-1.4-0.8-2.1-1c-0.7-0.2-1.4-0.3-2-0.3
		c-0.9,0-1.7,0.2-2.1,0.5c-0.5,0.3-0.7,0.8-0.7,1.5c0,0.4,0.1,0.7,0.4,0.9s0.6,0.3,1,0.4c0.4,0.1,1,0.1,1.8,0.2c0.1,0,0.1,0,0.2,0
		s0.1,0,0.2,0c0,0,0.1,0,0.1,0s0.1,0,0.1,0c1,0.1,1.8,0.2,2.5,0.4c0.7,0.2,1.3,0.6,1.8,1.2c0.5,0.6,0.7,1.4,0.7,2.6
		c0,1-0.2,1.9-0.7,2.5s-1.1,1.2-2,1.5c-0.9,0.3-2,0.5-3.3,0.5C1148.9,1033.3,1148.5,1033.3,1148.5,1033.3z"/>
	<path d="M1162,1027.5c0,1,0.3,1.8,0.8,2.3c0.5,0.5,1.2,0.8,2.1,0.8c0.9,0,1.6-0.2,2.1-0.7c0.5-0.5,0.8-1.2,0.8-2.1l0.2,3
		c-0.3,0.7-0.8,1.3-1.4,1.8c-0.7,0.5-1.5,0.7-2.4,0.7c-1.6,0-2.8-0.5-3.6-1.5c-0.9-1-1.3-2.4-1.3-4.3v-8.6h2.8V1027.5z
		 M1167.8,1018.9h2.8v14.2h-2.8V1018.9z"/>
	<path d="M1177.6,1029.4c0,0.3,0.1,0.6,0.2,0.8c0.2,0.2,0.4,0.3,0.6,0.3h1.3v2.7h-1.6c-1.1,0-1.9-0.3-2.5-1s-0.9-1.6-0.9-2.8v-16.2
		h2.8V1029.4z"/>
	<path d="M1181.8,1018.9h6.4v2.5h-6.4V1018.9z M1184.1,1032.2c-0.5-0.6-0.8-1.6-0.8-2.8v-14.6h2.8v14.7c0,0.3,0.1,0.6,0.2,0.8
		c0.1,0.2,0.3,0.3,0.6,0.3h1.3v2.7h-1.6C1185.5,1033.2,1184.6,1032.9,1184.1,1032.2z"/>
	<path d="M1195.8,1033.3c0,0-0.4-0.1-1.1-0.2s-1.4-0.4-2.1-0.7s-1.2-0.7-1.8-1.2l1.7-2c0.8,0.6,1.5,1,2.3,1.3
		c0.8,0.3,1.5,0.4,2.2,0.4c1.1,0,1.9-0.2,2.5-0.5s0.8-0.9,0.8-1.5c0-0.5-0.2-0.8-0.5-1c-0.3-0.2-0.7-0.4-1.1-0.5
		c-0.4-0.1-1.1-0.1-1.9-0.2c-0.1,0-0.2,0-0.2,0c-0.1,0-0.2,0-0.2,0c0,0-0.1,0-0.1,0c0,0-0.1,0-0.1,0c-0.9-0.1-1.7-0.2-2.3-0.4
		c-0.6-0.2-1.2-0.6-1.6-1.1c-0.4-0.5-0.6-1.3-0.6-2.3c0-1,0.2-1.8,0.6-2.5c0.4-0.7,1-1.2,1.8-1.5c0.8-0.3,1.8-0.5,3-0.5
		c0.7,0,1.4,0.1,2.1,0.2s1.3,0.3,1.9,0.6c0.6,0.3,1.2,0.6,1.8,1l-1.7,2c-0.7-0.5-1.4-0.8-2.1-1c-0.7-0.2-1.4-0.3-2-0.3
		c-0.9,0-1.7,0.2-2.1,0.5c-0.5,0.3-0.7,0.8-0.7,1.5c0,0.4,0.1,0.7,0.4,0.9s0.6,0.3,1,0.4c0.4,0.1,1,0.1,1.8,0.2c0.1,0,0.1,0,0.2,0
		s0.1,0,0.2,0c0,0,0.1,0,0.1,0s0.1,0,0.1,0c1,0.1,1.8,0.2,2.5,0.4c0.7,0.2,1.3,0.6,1.8,1.2c0.5,0.6,0.7,1.4,0.7,2.6
		c0,1-0.2,1.9-0.7,2.5s-1.1,1.2-2,1.5c-0.9,0.3-2,0.5-3.3,0.5C1196.2,1033.3,1195.8,1033.3,1195.8,1033.3z"/>
</g>
<g>
	<g>
		<line fill="none" stroke="#666666" stroke-width="4" stroke-miterlimit="10" x1="616.9" y1="888.4" x2="346.5" y2="768.5"/>
		<g>
			<g>
				<polygon fill="#666666" points="607.8,860.3 614.5,887.3 590,900.5 646.5,901.5 				"/>
				<polygon fill="#A3A3A3" points="611.3,866.7 641.5,899.3 617.2,888.5 				"/>
				<polygon fill="#C9C9C9" points="597.1,898.8 641.5,899.3 617.2,888.5 				"/>
			</g>
		</g>
	</g>
</g>
<g>
	<g>
		<line fill="none" stroke="#666666" stroke-width="4" stroke-miterlimit="10" x1="644.5" y1="965.5" x2="374.1" y2="845.6"/>
		<g>
			<g>
				<polygon fill="#666666" points="401,833.5 376.5,846.7 383.2,873.7 344.5,832.5 				"/>
				<polygon fill="#A3A3A3" points="393.9,835.2 349.5,834.7 373.8,845.5 				"/>
				<polygon fill="#C9C9C9" points="379.7,867.3 349.5,834.7 373.8,845.5 				"/>
			</g>
		</g>
	</g>
</g>
<g>
	<path d="M445.8,798.5c0,0-0.3-0.4-1-1.2c-0.6-0.8-1-1.7-1.1-2.8c-0.1-1,0.2-2.2,0.7-3.3l0.9-2.1c0.5-1.2,1.2-2.1,2-2.7
		c0.8-0.6,1.7-1,2.8-1.1c1-0.1,2.1,0.2,3.3,0.7c0.7,0.3,1.3,0.7,1.8,1.1c0.5,0.4,1,0.9,1.3,1.4c0.3,0.5,0.6,1.1,0.7,1.7l-2.6,0.8
		c-0.2-0.6-0.5-1.1-0.9-1.5s-0.9-0.8-1.4-1c-1-0.4-1.9-0.5-2.7-0.2c-0.8,0.3-1.4,1-1.8,2l-0.9,2.1c-0.5,1-0.5,1.9-0.2,2.7
		c0.3,0.8,0.9,1.4,1.9,1.9c0.5,0.2,1.1,0.3,1.7,0.3c0.6,0,1.2-0.2,1.7-0.5l1,2.6c-0.5,0.3-1.1,0.5-1.7,0.6c-0.6,0.1-1.2,0.1-1.9,0
		s-1.3-0.3-2-0.6C446.4,798.8,445.8,798.5,445.8,798.5z"/>
	<path d="M456.1,801.9c-0.5-1-0.4-2.2,0.2-3.5c0.6-1.3,1.4-2.1,2.4-2.4c1-0.3,2.2-0.2,3.7,0.5l3.7,1.6l-0.7,2.1l-3.8-1.7
		c-0.7-0.3-1.2-0.4-1.7-0.2c-0.5,0.1-0.8,0.5-1.1,1.1c-0.3,0.7-0.3,1.2,0,1.8c0.3,0.5,0.9,1,1.8,1.4c1,0.4,1.7,0.7,2.3,0.7
		c0.6,0,1-0.2,1.2-0.7l-0.5,1.9c-0.4,0.3-0.8,0.4-1.2,0.5c-0.4,0.1-0.9,0.1-1.4,0c-0.5-0.1-1-0.2-1.5-0.5
		C457.6,803.8,456.6,802.9,456.1,801.9z M466.1,797.5c0.4-0.8,0.4-1.6,0.2-2.3s-0.8-1.2-1.6-1.6c-0.5-0.2-1.1-0.4-1.6-0.4
		s-1.1,0-1.6,0.1l-1.3-2.1c0.8-0.4,1.6-0.5,2.6-0.5c1,0,1.9,0.3,2.9,0.7c1.1,0.5,1.9,1.1,2.5,1.8c0.6,0.7,0.9,1.5,1,2.4
		c0.1,0.9-0.1,1.9-0.6,2.9l-3.7,8.3l-2.4-1.1L466.1,797.5z"/>
	<path d="M472.8,806.3c-0.1,0.3-0.2,0.6-0.1,0.8c0.1,0.2,0.2,0.4,0.5,0.5l1.2,0.5l-1.1,2.4l-1.5-0.7c-1-0.4-1.6-1.1-1.8-1.9
		s-0.2-1.8,0.3-2.9l6.6-14.8l2.5,1.1L472.8,806.3z"/>
	<path d="M480.2,809.6c-0.1,0.3-0.2,0.6-0.1,0.8c0.1,0.2,0.2,0.4,0.5,0.5l1.2,0.5l-1.1,2.4l-1.5-0.7c-1-0.4-1.6-1.1-1.8-1.9
		c-0.3-0.8-0.2-1.8,0.3-2.9l6.6-14.8l2.5,1.1L480.2,809.6z"/>
	<path d="M501.2,801.2l2.2,1l-1.4,21.1l-2.7-1.2l1.5-16.9l-11.5,12.4l-2.7-1.2L501.2,801.2z M492.4,811.4l9.6,4.2l-1.1,2.4l-9.6-4.2
		L492.4,811.4z"/>
	<path d="M512.9,806.4l2.5,1.1l-8.1,18.2l-2.5-1.1L512.9,806.4z M510.3,815.7l5.8,2.6c0.5,0.2,1.1,0.3,1.6,0.3
		c0.5-0.1,1-0.3,1.5-0.7c0.4-0.4,0.8-0.9,1.1-1.5c0.3-0.6,0.4-1.2,0.4-1.8c0-0.6-0.2-1.1-0.5-1.5c-0.3-0.4-0.7-0.8-1.3-1l-5.8-2.6
		l1.1-2.4l5.7,2.5c1.1,0.5,1.9,1.1,2.6,2c0.6,0.8,1,1.8,1,2.8c0.1,1-0.1,2.1-0.6,3.2s-1.2,2-2,2.6c-0.8,0.6-1.8,1-2.8,1.1
		s-2.1-0.1-3.2-0.6l-5.7-2.5L510.3,815.7z"/>
	<path d="M523.3,832.8l-2.5-1.1l8.1-18.2l2.5,1.1L523.3,832.8z"/>
</g>
<g>
	<g>
		<line fill="none" stroke="#666666" stroke-width="4" stroke-miterlimit="10" x1="649.5" y1="482.5" x2="379.1" y2="602.4"/>
		<g>
			<g>
				<polygon fill="#666666" points="388.2,574.3 381.5,601.3 406,614.5 349.5,615.5 				"/>
				<polygon fill="#A3A3A3" points="384.7,580.7 354.5,613.3 378.8,602.5 				"/>
				<polygon fill="#C9C9C9" points="398.9,612.8 354.5,613.3 378.8,602.5 				"/>
			</g>
		</g>
	</g>
</g>
<g>
	<path d="M470.1,595.5c0,0-0.4,0.1-1.1,0.2s-1.5,0.2-2.2,0.1c-0.7,0-1.4-0.2-2.1-0.4l0.7-2.5c0.9,0.2,1.8,0.3,2.6,0.3
		c0.8,0,1.6-0.2,2.2-0.5c1-0.4,1.7-0.9,2.1-1.5c0.4-0.5,0.4-1.1,0.1-1.7c-0.2-0.4-0.5-0.7-0.8-0.8c-0.4-0.1-0.8-0.1-1.2,0
		c-0.4,0.1-1,0.3-1.8,0.6c-0.1,0-0.1,0.1-0.2,0.1c-0.1,0-0.2,0.1-0.2,0.1c0,0-0.1,0-0.1,0c0,0-0.1,0-0.1,0c-0.9,0.3-1.6,0.5-2.3,0.6
		c-0.7,0.1-1.3,0-1.9-0.4s-1.1-0.9-1.5-1.9c-0.4-0.9-0.5-1.8-0.4-2.5c0.1-0.8,0.5-1.5,1.1-2.1c0.6-0.6,1.5-1.2,2.6-1.7
		c0.7-0.3,1.4-0.5,2-0.7c0.7-0.1,1.3-0.2,2-0.2c0.7,0,1.3,0.1,2,0.2l-0.7,2.5c-0.8-0.1-1.6-0.2-2.3-0.1c-0.7,0.1-1.4,0.2-2,0.5
		c-0.9,0.4-1.5,0.8-1.8,1.3c-0.3,0.5-0.3,1-0.1,1.6c0.2,0.4,0.4,0.6,0.7,0.6c0.3,0.1,0.7,0.1,1.1-0.1s1-0.3,1.7-0.5
		c0.1,0,0.1,0,0.2-0.1c0.1,0,0.1,0,0.2-0.1c0,0,0.1,0,0.1,0c0,0,0.1,0,0.1,0c0.9-0.3,1.8-0.6,2.5-0.6c0.7-0.1,1.4,0,2.1,0.4
		s1.2,1,1.7,2.1c0.4,0.9,0.5,1.8,0.4,2.6c-0.1,0.8-0.5,1.5-1.2,2.2c-0.7,0.7-1.6,1.3-2.8,1.8C470.5,595.4,470.1,595.5,470.1,595.5z"
		/>
	<path d="M483.5,589.7c0,0-0.5,0-1.6-0.1s-2-0.5-2.8-1.1c-0.8-0.7-1.5-1.6-2-2.9l-0.6-1.5c-0.6-1.3-0.8-2.5-0.8-3.6
		c0-1.1,0.4-2.1,1-2.9c0.6-0.8,1.5-1.5,2.6-2c1.1-0.5,2.1-0.6,3.1-0.4c1,0.2,1.9,0.7,2.8,1.6c0.9,0.9,1.6,2,2.2,3.4l0.4,0.9
		l-8.8,3.8l-0.9-2.1l6.3-2.8c-0.5-1-1.2-1.7-1.9-2.1c-0.7-0.4-1.5-0.4-2.3-0.1c-1,0.4-1.6,1.1-1.8,1.9c-0.3,0.9-0.1,1.9,0.4,3
		l0.7,1.7c0.5,1.1,1.1,1.8,1.9,2.1c0.8,0.3,1.8,0.3,2.8-0.2c0.5-0.2,1-0.6,1.4-1c0.4-0.4,0.7-0.9,1-1.5l2.4,0.9
		c-0.4,0.9-0.9,1.7-1.5,2.4c-0.7,0.7-1.4,1.2-2.2,1.6C484.1,589.4,483.5,589.7,483.5,589.7z"/>
	<path d="M488,572.1l2.6-1.1l5.7,13l-2.6,1.1L488,572.1z M495.4,571.8c-0.4,0-0.8,0.1-1.3,0.3c-0.8,0.4-1.3,0.9-1.6,1.5
		c-0.3,0.6-0.2,1.4,0.1,2.2l-1.4-2.4c0.1-1,0.3-1.8,0.8-2.5c0.4-0.7,1.1-1.2,1.8-1.6c0.6-0.3,1.2-0.4,1.7-0.4c0.6,0,1.1,0,1.6,0.2
		l-0.7,3C496.2,571.8,495.8,571.8,495.4,571.8z"/>
	<path d="M506.7,564l2.7-1.2l0.8,15.1l-1.9,0.8l-10.6-10.9l2.7-1.2l7.2,7.9L506.7,564z"/>
	<path d="M520.8,573.5c0,0-0.5,0-1.6-0.1c-1-0.1-2-0.5-2.8-1.1c-0.8-0.7-1.5-1.6-2-2.9l-0.6-1.5c-0.6-1.3-0.8-2.5-0.8-3.6
		c0-1.1,0.4-2.1,1-2.9c0.6-0.8,1.5-1.5,2.6-2c1.1-0.5,2.1-0.6,3.1-0.4c1,0.2,1.9,0.7,2.8,1.6c0.9,0.9,1.6,2,2.2,3.4l0.4,0.9
		l-8.8,3.8l-0.9-2.1l6.3-2.8c-0.5-1-1.2-1.7-1.9-2.1s-1.5-0.4-2.3-0.1c-1,0.4-1.6,1.1-1.8,1.9c-0.3,0.9-0.1,1.9,0.4,3l0.7,1.7
		c0.5,1.1,1.1,1.8,1.9,2.1c0.8,0.3,1.8,0.3,2.8-0.2c0.5-0.2,1-0.6,1.4-1c0.4-0.4,0.7-0.9,1-1.5l2.4,0.9c-0.4,0.9-0.9,1.7-1.5,2.4
		c-0.7,0.7-1.4,1.2-2.2,1.6C521.5,573.2,520.8,573.5,520.8,573.5z"/>
	<path d="M539.2,555.5c-0.4-0.9-0.9-1.4-1.5-1.7c-0.7-0.3-1.4-0.2-2.2,0.1c-0.5,0.2-1,0.5-1.4,0.9s-0.8,0.8-1,1.2l-2.4-0.5
		c0.2-0.8,0.7-1.6,1.3-2.2c0.7-0.7,1.5-1.2,2.5-1.7c1.1-0.5,2.1-0.7,3-0.6c0.9,0,1.8,0.3,2.5,0.9c0.7,0.5,1.3,1.3,1.7,2.4l3.6,8.4
		l-2.4,1.1L539.2,555.5z M535.6,565.9c-1.1-0.3-1.9-1.2-2.5-2.5c-0.6-1.3-0.6-2.4-0.2-3.4s1.4-1.8,2.9-2.4l3.7-1.6l1.1,2l-3.9,1.7
		c-0.7,0.3-1.1,0.7-1.3,1.1c-0.2,0.4-0.2,1,0.1,1.6c0.3,0.7,0.7,1.1,1.3,1.2c0.6,0.1,1.3,0,2.2-0.4c1-0.4,1.7-0.8,2.1-1.3
		s0.5-0.8,0.3-1.3l1.1,1.7c-0.1,0.4-0.2,0.9-0.5,1.2c-0.2,0.4-0.5,0.7-0.9,1c-0.4,0.3-0.8,0.6-1.4,0.8
		C538,566,536.7,566.2,535.6,565.9z"/>
	<path d="M552.6,559.7c0,0-0.4,0.1-1.1,0.2c-0.7,0.1-1.5,0.2-2.2,0.1c-0.7,0-1.4-0.2-2.1-0.4l0.7-2.5c0.9,0.2,1.8,0.3,2.6,0.3
		c0.8,0,1.6-0.2,2.2-0.5c1-0.4,1.7-0.9,2.1-1.5c0.4-0.5,0.4-1.1,0.1-1.7c-0.2-0.4-0.5-0.7-0.8-0.8c-0.4-0.1-0.8-0.1-1.2,0
		c-0.4,0.1-1,0.3-1.8,0.6c-0.1,0-0.1,0.1-0.2,0.1c-0.1,0-0.2,0.1-0.2,0.1c0,0-0.1,0-0.1,0c0,0-0.1,0-0.1,0c-0.9,0.3-1.6,0.5-2.3,0.6
		s-1.3,0-1.9-0.4c-0.6-0.3-1.1-0.9-1.5-1.9c-0.4-0.9-0.5-1.8-0.4-2.5c0.1-0.8,0.5-1.5,1.1-2.1s1.5-1.2,2.6-1.7
		c0.7-0.3,1.3-0.5,2-0.7c0.7-0.1,1.3-0.2,2-0.2c0.7,0,1.3,0.1,2,0.2l-0.7,2.5c-0.8-0.1-1.6-0.2-2.3-0.1c-0.7,0.1-1.4,0.2-2,0.5
		c-0.9,0.4-1.5,0.8-1.8,1.3c-0.3,0.5-0.3,1-0.1,1.6c0.2,0.4,0.4,0.6,0.7,0.6c0.3,0.1,0.7,0,1.1-0.1c0.4-0.1,1-0.3,1.7-0.5
		c0.1,0,0.1,0,0.2-0.1c0.1,0,0.1,0,0.2-0.1c0,0,0,0,0.1,0c0,0,0.1,0,0.1,0c0.9-0.3,1.8-0.6,2.5-0.6c0.7-0.1,1.4,0,2.1,0.4
		s1.2,1,1.7,2.1c0.4,0.9,0.5,1.8,0.4,2.6c-0.1,0.8-0.5,1.5-1.2,2.2c-0.7,0.7-1.6,1.3-2.8,1.8C553,559.5,552.6,559.7,552.6,559.7z"/>
	<path d="M565.9,553.9c0,0-0.4,0.1-1.1,0.2c-0.7,0.1-1.5,0.2-2.2,0.1c-0.7,0-1.4-0.2-2.1-0.4l0.7-2.5c0.9,0.2,1.8,0.3,2.6,0.3
		c0.8,0,1.6-0.2,2.2-0.5c1-0.4,1.7-0.9,2.1-1.5c0.4-0.5,0.4-1.1,0.1-1.7c-0.2-0.4-0.5-0.7-0.8-0.8c-0.4-0.1-0.8-0.1-1.2,0
		c-0.4,0.1-1,0.3-1.8,0.6c-0.1,0-0.1,0.1-0.2,0.1c-0.1,0-0.2,0.1-0.2,0.1c0,0-0.1,0-0.1,0c0,0-0.1,0-0.1,0c-0.9,0.3-1.6,0.5-2.3,0.6
		c-0.7,0.1-1.3,0-1.9-0.4c-0.6-0.3-1.1-0.9-1.5-1.9c-0.4-0.9-0.5-1.8-0.4-2.5c0.1-0.8,0.5-1.5,1.1-2.1s1.5-1.2,2.6-1.7
		c0.7-0.3,1.4-0.5,2-0.7c0.7-0.1,1.3-0.2,2-0.2c0.7,0,1.3,0.1,2,0.2l-0.7,2.5c-0.8-0.1-1.6-0.2-2.3-0.1c-0.7,0.1-1.4,0.2-2,0.5
		c-0.9,0.4-1.5,0.8-1.8,1.3c-0.3,0.5-0.3,1-0.1,1.6c0.2,0.4,0.4,0.6,0.7,0.6c0.3,0.1,0.7,0.1,1.1-0.1c0.4-0.1,1-0.3,1.7-0.5
		c0.1,0,0.1,0,0.2-0.1c0.1,0,0.1,0,0.2-0.1c0,0,0,0,0.1,0c0,0,0.1,0,0.1,0c0.9-0.3,1.8-0.6,2.5-0.6c0.7-0.1,1.4,0,2.1,0.4
		c0.7,0.4,1.2,1,1.7,2.1c0.4,0.9,0.5,1.8,0.4,2.6c-0.1,0.8-0.5,1.5-1.2,2.2c-0.7,0.7-1.6,1.3-2.8,1.8
		C566.3,553.7,565.9,553.9,565.9,553.9z"/>
	<path d="M579.3,548.1c0,0-0.5,0-1.6-0.1s-2-0.5-2.8-1.1c-0.8-0.7-1.5-1.6-2-2.9l-0.6-1.5c-0.6-1.3-0.8-2.5-0.8-3.6s0.4-2.1,1-2.9
		c0.6-0.8,1.5-1.5,2.6-2c1.1-0.5,2.1-0.6,3.1-0.4c1,0.2,1.9,0.7,2.8,1.6s1.6,2,2.2,3.4l0.4,0.9l-8.8,3.8l-0.9-2.1l6.3-2.8
		c-0.5-1-1.2-1.7-1.9-2.1c-0.7-0.4-1.5-0.4-2.3-0.1c-1,0.4-1.6,1.1-1.8,1.9c-0.3,0.9-0.1,1.9,0.4,3l0.7,1.7c0.5,1.1,1.1,1.8,1.9,2.1
		c0.8,0.3,1.8,0.3,2.8-0.2c0.5-0.2,1-0.6,1.4-1c0.4-0.4,0.7-0.9,1-1.5l2.4,0.9c-0.4,0.9-0.9,1.7-1.5,2.4s-1.4,1.2-2.2,1.6
		C579.9,547.8,579.3,548.1,579.3,548.1z"/>
	<path d="M590.2,542.1c-0.7-0.4-1.4-1.1-1.9-2.3l-5.8-13.4l2.6-1.1l5.8,13.4c0.1,0.3,0.3,0.5,0.5,0.7c0.2,0.1,0.4,0.1,0.7,0l1.2-0.5
		l1.1,2.4l-1.5,0.6C591.8,542.5,590.9,542.5,590.2,542.1z M582.8,530.8l5.9-2.6l1,2.3l-5.9,2.6L582.8,530.8z"/>
	<path d="M601.4,538.5c0,0-0.4,0.1-1.1,0.2c-0.7,0.1-1.5,0.2-2.2,0.1c-0.7,0-1.4-0.2-2.1-0.4l0.7-2.5c0.9,0.2,1.8,0.3,2.6,0.3
		c0.8,0,1.6-0.2,2.2-0.5c1-0.4,1.7-0.9,2.1-1.5s0.4-1.1,0.1-1.7c-0.2-0.4-0.5-0.7-0.8-0.8s-0.8-0.1-1.2,0c-0.4,0.1-1,0.3-1.8,0.6
		c-0.1,0-0.1,0.1-0.2,0.1c-0.1,0-0.2,0.1-0.2,0.1c0,0-0.1,0-0.1,0c0,0-0.1,0-0.1,0c-0.9,0.3-1.6,0.5-2.3,0.6c-0.7,0.1-1.3,0-1.9-0.4
		c-0.6-0.3-1.1-0.9-1.5-1.9c-0.4-0.9-0.5-1.8-0.4-2.5c0.1-0.8,0.5-1.5,1.1-2.1c0.6-0.6,1.5-1.2,2.6-1.7c0.7-0.3,1.4-0.5,2-0.7
		c0.7-0.1,1.3-0.2,2-0.2s1.3,0.1,2,0.2l-0.7,2.5c-0.8-0.1-1.6-0.2-2.3-0.1c-0.7,0.1-1.4,0.2-2,0.5c-0.9,0.4-1.5,0.8-1.8,1.3
		c-0.3,0.5-0.3,1-0.1,1.6c0.2,0.4,0.4,0.6,0.7,0.6s0.7,0,1.1-0.1c0.4-0.1,1-0.3,1.7-0.5c0.1,0,0.1,0,0.2-0.1c0.1,0,0.1,0,0.2-0.1
		c0,0,0.1,0,0.1,0c0,0,0.1,0,0.1,0c0.9-0.3,1.8-0.6,2.5-0.6c0.7-0.1,1.4,0,2.1,0.4s1.2,1,1.7,2.1c0.4,0.9,0.5,1.8,0.4,2.6
		s-0.5,1.5-1.2,2.2c-0.7,0.7-1.6,1.3-2.8,1.8C601.7,538.3,601.4,538.5,601.4,538.5z"/>
</g>
<g>
	<path d="M434.8,906.5c0,0-0.3-0.2-0.9-0.7c-0.6-0.4-1.1-1-1.6-1.5c-0.5-0.6-0.8-1.2-1.1-1.8l2.3-1.2c0.5,0.8,1,1.6,1.6,2.1
		c0.6,0.6,1.2,1,1.9,1.3c1,0.4,1.8,0.6,2.5,0.5c0.6-0.1,1.1-0.4,1.4-1.1c0.2-0.4,0.2-0.8,0-1.1s-0.5-0.6-0.8-0.9
		c-0.4-0.3-0.9-0.6-1.6-1c-0.1,0-0.1-0.1-0.2-0.1c-0.1,0-0.1-0.1-0.2-0.1c0,0-0.1,0-0.1,0c0,0-0.1,0-0.1-0.1c-0.8-0.4-1.5-0.9-2-1.3
		c-0.5-0.4-0.8-1-1-1.7c-0.2-0.7-0.1-1.5,0.4-2.4c0.4-0.9,0.9-1.6,1.6-2c0.6-0.4,1.4-0.6,2.3-0.6c0.9,0,1.9,0.3,3,0.8
		c0.7,0.3,1.3,0.6,1.8,1c0.6,0.4,1.1,0.8,1.5,1.3c0.4,0.5,0.8,1,1.2,1.6l-2.4,1.2c-0.5-0.7-1-1.3-1.5-1.8c-0.5-0.5-1.1-0.9-1.7-1.1
		c-0.9-0.4-1.6-0.5-2.1-0.4c-0.6,0.1-1,0.5-1.2,1c-0.2,0.3-0.1,0.7,0,1c0.2,0.3,0.4,0.5,0.8,0.8c0.3,0.2,0.9,0.5,1.5,0.9
		c0,0,0.1,0.1,0.2,0.1c0.1,0,0.1,0.1,0.2,0.1c0,0,0,0,0.1,0c0,0,0,0,0.1,0c0.9,0.5,1.6,0.9,2.2,1.4s0.9,1.1,1.1,1.8
		c0.2,0.7,0.1,1.6-0.4,2.6c-0.4,0.9-1,1.6-1.6,2.1s-1.5,0.6-2.4,0.6c-0.9,0-2-0.3-3.2-0.9C435.2,906.7,434.8,906.5,434.8,906.5z"/>
	<path d="M448.1,912.5c0,0-0.3-0.4-1-1.2c-0.6-0.8-1-1.8-1.1-2.8c-0.1-1.1,0.2-2.2,0.7-3.5l0.6-1.5c0.6-1.3,1.3-2.3,2.1-3
		c0.8-0.7,1.8-1.1,2.8-1.2c1-0.1,2.1,0.1,3.3,0.6c1.1,0.5,1.9,1.2,2.4,2c0.5,0.9,0.8,1.9,0.7,3.1c-0.1,1.2-0.4,2.5-1,4l-0.4,0.8
		l-8.7-3.9l0.9-2l6.3,2.8c0.4-1.1,0.5-2,0.3-2.8c-0.2-0.8-0.7-1.4-1.5-1.7c-1-0.4-1.9-0.4-2.7,0c-0.8,0.4-1.5,1.2-2,2.3l-0.7,1.6
		c-0.5,1.1-0.6,2-0.2,2.9c0.3,0.8,1,1.5,2,1.9c0.5,0.2,1.1,0.4,1.7,0.4c0.6,0,1.2-0.1,1.8-0.3l0.9,2.4c-0.9,0.3-1.8,0.5-2.8,0.5
		c-0.9,0-1.8-0.2-2.6-0.6C448.7,912.7,448.1,912.5,448.1,912.5z"/>
	<path d="M464.2,903.8l2.5,1.1l-5.8,13l-2.5-1.1L464.2,903.8z M469.4,909.1c-0.3-0.3-0.6-0.5-1.1-0.7c-0.8-0.4-1.5-0.4-2.2-0.2
		c-0.6,0.2-1.1,0.8-1.5,1.6l0.8-2.6c0.7-0.6,1.5-1,2.4-1.1c0.8-0.1,1.6-0.1,2.4,0.3c0.6,0.3,1.1,0.6,1.5,1s0.7,0.8,0.9,1.3l-2.7,1.5
		C469.8,909.7,469.6,909.4,469.4,909.1z"/>
	<path d="M482.7,912.1l2.7,1.2l-10.6,10.8l-1.9-0.9l0.9-15.1l2.7,1.2l-0.9,10.7L482.7,912.1z"/>
	<path d="M485.3,929c0,0-0.3-0.4-1-1.2c-0.6-0.8-1-1.8-1.1-2.8c-0.1-1.1,0.2-2.2,0.7-3.5l0.6-1.5c0.6-1.3,1.3-2.3,2.1-3
		c0.8-0.7,1.8-1.1,2.8-1.2c1-0.1,2.1,0.1,3.3,0.6c1.1,0.5,1.9,1.2,2.4,2c0.5,0.9,0.8,1.9,0.7,3.1c-0.1,1.2-0.4,2.5-1,4l-0.4,0.8
		l-8.7-3.9l0.9-2l6.3,2.8c0.4-1.1,0.5-2,0.3-2.8c-0.2-0.8-0.7-1.4-1.5-1.7c-1-0.4-1.9-0.4-2.7,0c-0.8,0.4-1.5,1.2-2,2.3l-0.7,1.6
		c-0.5,1.1-0.6,2-0.3,2.9c0.3,0.8,1,1.5,2,1.9c0.5,0.2,1.1,0.4,1.7,0.4c0.6,0,1.2-0.1,1.8-0.3l0.9,2.4c-0.9,0.3-1.8,0.5-2.8,0.5
		s-1.8-0.2-2.6-0.6C485.9,929.3,485.3,929,485.3,929z"/>
	<path d="M505.7,922.3l2.5,1.1l-5.8,13l-2.5-1.1L505.7,922.3z M510.9,927.6c-0.3-0.3-0.6-0.5-1.1-0.7c-0.8-0.4-1.5-0.4-2.2-0.2
		s-1.1,0.8-1.5,1.6l0.8-2.6c0.7-0.6,1.5-1,2.4-1.1c0.8-0.1,1.6-0.1,2.4,0.3c0.6,0.3,1.1,0.6,1.5,1c0.4,0.4,0.7,0.8,0.9,1.3l-2.7,1.5
		C511.4,928.2,511.2,927.8,510.9,927.6z"/>
	<path d="M514.1,941.8c0,0-0.3-0.4-1-1.2c-0.6-0.8-1-1.8-1.1-2.8c-0.1-1.1,0.2-2.2,0.7-3.5l0.6-1.5c0.6-1.3,1.3-2.3,2.1-3
		c0.8-0.7,1.8-1.1,2.8-1.2s2.1,0.1,3.3,0.6c1.1,0.5,1.9,1.2,2.4,2c0.5,0.9,0.8,1.9,0.7,3.1c-0.1,1.2-0.4,2.5-1,4l-0.4,0.8l-8.7-3.9
		l0.9-2l6.3,2.8c0.4-1.1,0.5-2,0.3-2.8c-0.2-0.8-0.7-1.4-1.5-1.7c-1-0.4-1.9-0.4-2.7,0c-0.8,0.4-1.5,1.2-2,2.3l-0.7,1.6
		c-0.5,1.1-0.6,2-0.3,2.9c0.3,0.8,1,1.5,2,1.9c0.5,0.2,1.1,0.4,1.7,0.4c0.6,0,1.2-0.1,1.8-0.3l0.9,2.4c-0.9,0.3-1.8,0.5-2.8,0.5
		c-0.9,0-1.8-0.2-2.6-0.6C514.7,942,514.1,941.8,514.1,941.8z"/>
	<path d="M527.7,947.8c0,0-0.3-0.2-0.9-0.7s-1.1-1-1.6-1.5c-0.5-0.6-0.8-1.2-1.1-1.8l2.3-1.2c0.5,0.8,1,1.6,1.6,2.1
		c0.6,0.6,1.2,1,1.9,1.3c1,0.4,1.8,0.6,2.5,0.5c0.6-0.1,1.1-0.4,1.4-1.1c0.2-0.4,0.2-0.8,0-1.1s-0.5-0.6-0.8-0.9
		c-0.4-0.3-0.9-0.6-1.6-1c-0.1,0-0.1-0.1-0.2-0.1c-0.1,0-0.1-0.1-0.2-0.1c0,0-0.1,0-0.1,0c0,0-0.1,0-0.1-0.1c-0.8-0.4-1.5-0.9-2-1.3
		s-0.8-1-1-1.7c-0.2-0.7-0.1-1.5,0.4-2.4c0.4-0.9,0.9-1.6,1.6-2c0.6-0.4,1.4-0.6,2.3-0.6c0.9,0,1.9,0.3,3,0.8c0.7,0.3,1.3,0.6,1.8,1
		c0.6,0.4,1.1,0.8,1.5,1.3c0.4,0.5,0.8,1,1.2,1.6l-2.4,1.2c-0.5-0.7-1-1.3-1.5-1.8c-0.5-0.5-1.1-0.9-1.7-1.1
		c-0.9-0.4-1.6-0.5-2.1-0.4c-0.6,0.1-1,0.5-1.2,1c-0.2,0.3-0.1,0.7,0,1c0.2,0.3,0.4,0.5,0.8,0.8c0.3,0.2,0.9,0.5,1.5,0.9
		c0,0,0.1,0.1,0.2,0.1c0.1,0,0.1,0.1,0.2,0.1c0,0,0,0,0.1,0c0,0,0,0,0.1,0c0.9,0.5,1.6,0.9,2.2,1.4s0.9,1.1,1.1,1.8
		c0.2,0.7,0.1,1.6-0.4,2.6c-0.4,0.9-1,1.6-1.6,2.1s-1.5,0.6-2.4,0.6c-0.9,0-2-0.3-3.2-0.9C528.1,948,527.7,947.8,527.7,947.8z"/>
	<path d="M542.4,948.1c-0.4,0.9-0.5,1.7-0.2,2.4c0.2,0.7,0.8,1.2,1.6,1.6c0.8,0.4,1.6,0.4,2.2,0.2c0.7-0.2,1.2-0.8,1.5-1.6l-1,2.8
		c-0.6,0.5-1.2,0.9-2,1s-1.6,0.1-2.5-0.3c-1.4-0.6-2.3-1.6-2.7-2.9c-0.4-1.3-0.2-2.7,0.6-4.4l3.5-7.9l2.5,1.1L542.4,948.1z
		 M551.2,942.5l2.5,1.1l-5.8,13l-2.5-1.1L551.2,942.5z"/>
	<path d="M555.9,956.1c-0.1,0.3-0.2,0.6-0.1,0.8c0.1,0.2,0.2,0.4,0.5,0.5l1.2,0.5l-1.1,2.4l-1.5-0.7c-1-0.4-1.6-1.1-1.8-1.9
		c-0.3-0.8-0.2-1.8,0.3-2.9l6.6-14.8l2.5,1.1L555.9,956.1z"/>
	<path d="M560.7,961.3c-0.2-0.8-0.1-1.8,0.4-2.9L567,945l2.5,1.1l-6,13.4c-0.1,0.3-0.2,0.6-0.1,0.8c0,0.2,0.2,0.4,0.4,0.5l1.2,0.5
		l-1.1,2.4l-1.5-0.7C561.6,962.7,560.9,962.1,560.7,961.3z M564,948.2l5.8,2.6l-1,2.3l-5.8-2.6L564,948.2z"/>
	<path d="M571,967.1c0,0-0.3-0.2-0.9-0.7s-1.1-1-1.6-1.5c-0.5-0.6-0.8-1.2-1.1-1.8l2.3-1.2c0.5,0.8,1,1.6,1.6,2.1
		c0.6,0.6,1.2,1,1.9,1.3c1,0.4,1.8,0.6,2.5,0.5c0.6-0.1,1.1-0.4,1.4-1.1c0.2-0.4,0.2-0.8,0-1.1c-0.2-0.3-0.5-0.6-0.8-0.9
		c-0.4-0.3-0.9-0.6-1.6-1c-0.1,0-0.1-0.1-0.2-0.1c-0.1,0-0.1-0.1-0.2-0.1c0,0-0.1,0-0.1,0c0,0-0.1,0-0.1-0.1c-0.8-0.4-1.5-0.9-2-1.3
		c-0.5-0.4-0.8-1-1-1.7c-0.2-0.7,0-1.5,0.4-2.4s0.9-1.6,1.6-2s1.4-0.6,2.3-0.6c0.9,0,1.9,0.3,3,0.8c0.7,0.3,1.3,0.6,1.8,1
		c0.6,0.4,1.1,0.8,1.5,1.3c0.4,0.5,0.8,1,1.2,1.6l-2.4,1.2c-0.5-0.7-1-1.3-1.5-1.8c-0.5-0.5-1.1-0.9-1.7-1.1
		c-0.9-0.4-1.6-0.5-2.1-0.4c-0.6,0.1-1,0.5-1.2,1c-0.2,0.3-0.1,0.7,0,1s0.4,0.5,0.8,0.8c0.3,0.2,0.9,0.5,1.5,0.9
		c0,0,0.1,0.1,0.2,0.1c0.1,0,0.1,0.1,0.2,0.1c0,0,0,0,0.1,0s0,0,0.1,0c0.9,0.5,1.6,0.9,2.2,1.4c0.6,0.5,0.9,1.1,1.1,1.8
		c0.2,0.7,0.1,1.6-0.4,2.6c-0.4,0.9-1,1.6-1.6,2.1c-0.7,0.4-1.5,0.6-2.4,0.6c-0.9,0-2-0.3-3.2-0.9C571.3,967.2,571,967.1,571,967.1z
		"/>
</g>
<g>
	<path d="M966,300l2.6-1.1l5.7,13l-2.6,1.1L966,300z M973.4,299.7c-0.4,0-0.8,0.1-1.3,0.3c-0.8,0.4-1.3,0.9-1.6,1.5
		c-0.3,0.6-0.2,1.4,0.1,2.2l-1.4-2.4c0.1-1,0.3-1.8,0.8-2.5s1.1-1.2,1.8-1.6c0.6-0.3,1.2-0.4,1.7-0.4c0.6,0,1.1,0,1.6,0.2l-0.7,3
		C974.1,299.8,973.8,299.7,973.4,299.7z"/>
	<path d="M986,307c0,0-0.5,0-1.6-0.1c-1-0.1-2-0.5-2.8-1.1c-0.8-0.7-1.5-1.6-2.1-2.9l-0.6-1.5c-0.6-1.3-0.8-2.5-0.8-3.6
		c0-1.1,0.4-2.1,1-2.9c0.6-0.8,1.5-1.5,2.6-2c1.1-0.5,2.1-0.6,3.1-0.4s1.9,0.7,2.8,1.6c0.9,0.8,1.6,2,2.2,3.4l0.4,0.9l-8.8,3.8
		l-0.9-2.1l6.3-2.8c-0.5-1-1.2-1.7-1.9-2.1c-0.7-0.4-1.5-0.4-2.3-0.1c-1,0.4-1.6,1.1-1.8,1.9c-0.3,0.9-0.1,1.9,0.4,3l0.7,1.7
		c0.5,1.1,1.1,1.8,1.9,2.1c0.8,0.3,1.8,0.3,2.8-0.2c0.5-0.2,1-0.6,1.4-1c0.4-0.4,0.7-0.9,1-1.5l2.4,0.9c-0.4,0.9-0.9,1.7-1.5,2.4
		c-0.7,0.7-1.4,1.2-2.2,1.6C986.6,306.7,986,307,986,307z"/>
	<path d="M997.6,301.2c-0.9-0.1-1.6-0.5-2.3-1.1c-0.7-0.6-1.3-1.5-1.8-2.6l-1.3-2.9c-0.5-1.1-0.7-2.1-0.7-3.1s0.2-1.8,0.7-2.5
		c0.5-0.7,1.2-1.3,2.1-1.7c0.8-0.3,1.6-0.4,2.4-0.3c0.8,0.1,1.6,0.5,2.3,1l0.9,2.8c-0.2-0.6-0.5-1-0.9-1.3c-0.4-0.3-0.8-0.5-1.3-0.5
		c-0.5,0-1,0.1-1.5,0.3c-0.8,0.4-1.4,0.9-1.6,1.6c-0.2,0.7-0.1,1.6,0.3,2.5l1.2,2.8c0.4,0.9,1,1.6,1.7,1.9c0.7,0.3,1.5,0.3,2.3-0.1
		c0.5-0.2,1-0.5,1.2-0.9c0.3-0.4,0.4-0.8,0.5-1.3c0-0.5-0.1-1-0.3-1.6l1.4,2.7c0,0.8-0.2,1.5-0.6,2.2c-0.4,0.7-1,1.2-1.9,1.6
		C999.4,301.1,998.5,301.3,997.6,301.2z M997.8,286.1l2.6-1.1l8,18.3l-2.6,1.1L997.8,286.1z"/>
	<path d="M1010.3,290c0.4,0.9,0.9,1.5,1.6,1.8c0.7,0.3,1.4,0.3,2.3-0.1c0.8-0.4,1.4-0.9,1.7-1.5c0.3-0.6,0.2-1.4-0.1-2.2l1.4,2.6
		c0,0.8-0.2,1.5-0.6,2.2c-0.4,0.7-1.1,1.2-1.9,1.6c-1.4,0.6-2.7,0.7-3.9,0.1c-1.2-0.6-2.1-1.7-2.9-3.4l-3.5-7.9l2.6-1.1L1010.3,290z
		 M1012.1,279.8l2.5-1.1l5.7,13l-2.5,1.1L1012.1,279.8z"/>
	<path d="M1027.8,288.6c0,0-0.5,0-1.6-0.1c-1-0.1-2-0.5-2.8-1.1s-1.5-1.6-2.1-2.9l-0.6-1.5c-0.6-1.3-0.8-2.5-0.8-3.6s0.4-2.1,1-2.9
		c0.6-0.8,1.5-1.5,2.6-2c1.1-0.5,2.1-0.6,3.1-0.4s1.9,0.7,2.8,1.6c0.9,0.8,1.6,2,2.2,3.4l0.4,0.9l-8.8,3.8l-0.9-2.1l6.3-2.8
		c-0.5-1-1.2-1.7-1.9-2.1c-0.7-0.4-1.5-0.4-2.3-0.1c-1,0.4-1.6,1.1-1.8,1.9c-0.3,0.9-0.1,1.9,0.4,3l0.7,1.7c0.5,1.1,1.1,1.8,1.9,2.1
		s1.8,0.3,2.8-0.2c0.5-0.2,1-0.6,1.4-1c0.4-0.4,0.7-0.9,1-1.5l2.4,0.9c-0.4,0.9-0.9,1.7-1.5,2.4c-0.7,0.7-1.4,1.2-2.2,1.6
		C1028.4,288.4,1027.8,288.6,1027.8,288.6z"/>
	<path d="M1041.5,282.7c0,0-0.4,0.1-1.1,0.2c-0.7,0.1-1.5,0.2-2.2,0.1c-0.7,0-1.4-0.2-2.1-0.4l0.7-2.5c0.9,0.2,1.8,0.3,2.6,0.3
		c0.8,0,1.6-0.2,2.2-0.5c1-0.4,1.7-0.9,2.1-1.5c0.4-0.5,0.4-1.1,0.1-1.7c-0.2-0.4-0.5-0.7-0.8-0.8c-0.4-0.1-0.8-0.1-1.2,0
		c-0.4,0.1-1,0.3-1.8,0.6c-0.1,0-0.1,0.1-0.2,0.1c-0.1,0-0.2,0.1-0.2,0.1c0,0-0.1,0-0.1,0c0,0-0.1,0-0.1,0c-0.9,0.3-1.6,0.5-2.3,0.6
		c-0.7,0.1-1.3,0-1.9-0.4c-0.6-0.3-1.1-0.9-1.5-1.9c-0.4-0.9-0.5-1.8-0.4-2.5c0.1-0.8,0.5-1.5,1.1-2.1c0.6-0.6,1.5-1.2,2.6-1.7
		c0.7-0.3,1.3-0.5,2-0.7c0.7-0.1,1.3-0.2,2-0.2s1.3,0.1,2,0.2l-0.7,2.5c-0.8-0.1-1.6-0.2-2.3-0.1c-0.7,0.1-1.4,0.2-2,0.5
		c-0.9,0.4-1.5,0.8-1.8,1.3c-0.3,0.5-0.3,1-0.1,1.6c0.2,0.4,0.4,0.6,0.7,0.6c0.3,0.1,0.7,0,1.1-0.1c0.4-0.1,1-0.3,1.7-0.6
		c0.1,0,0.1,0,0.2-0.1c0.1,0,0.1,0,0.2-0.1c0,0,0.1,0,0.1,0s0.1,0,0.1,0c0.9-0.3,1.8-0.6,2.5-0.7c0.7-0.1,1.4,0,2.1,0.4
		c0.7,0.4,1.2,1,1.7,2.1c0.4,0.9,0.5,1.8,0.4,2.6c-0.1,0.8-0.5,1.5-1.2,2.2c-0.7,0.7-1.6,1.3-2.8,1.8
		C1041.9,282.5,1041.5,282.7,1041.5,282.7z"/>
	<path d="M1052,276.9c-0.7-0.4-1.4-1.1-1.9-2.3l-5.9-13.4l2.6-1.1l5.9,13.4c0.1,0.3,0.3,0.5,0.5,0.6c0.2,0.1,0.4,0.1,0.7,0l1.2-0.5
		l1.1,2.4l-1.5,0.6C1053.6,277.2,1052.7,277.2,1052,276.9z M1044.6,265.6l5.9-2.6l1,2.3l-5.9,2.6L1044.6,265.6z"/>
	<path d="M1067.7,261.1c-0.4-0.9-0.9-1.4-1.6-1.7s-1.4-0.2-2.2,0.1c-0.5,0.2-1,0.5-1.4,0.9c-0.4,0.4-0.8,0.8-1,1.2l-2.4-0.5
		c0.2-0.8,0.7-1.6,1.3-2.2c0.7-0.7,1.5-1.2,2.5-1.7c1.1-0.5,2.1-0.7,3-0.6c0.9,0,1.8,0.3,2.5,0.9s1.3,1.3,1.7,2.3l3.7,8.4l-2.4,1.1
		L1067.7,261.1z M1064.2,271.5c-1.1-0.3-1.9-1.2-2.5-2.5c-0.6-1.3-0.6-2.4-0.2-3.4c0.4-1,1.4-1.8,2.9-2.4l3.7-1.6l1.1,2l-3.9,1.7
		c-0.7,0.3-1.1,0.7-1.3,1.1c-0.2,0.4-0.2,1,0.1,1.6c0.3,0.7,0.7,1.1,1.3,1.2s1.3,0,2.2-0.4c1-0.4,1.7-0.9,2-1.3
		c0.4-0.4,0.5-0.8,0.3-1.3l1.1,1.7c-0.1,0.4-0.2,0.9-0.5,1.2c-0.2,0.4-0.5,0.7-0.9,1c-0.4,0.3-0.8,0.6-1.4,0.8
		C1066.6,271.6,1065.3,271.8,1064.2,271.5z"/>
	<path d="M1081.2,265.3c0,0-0.4,0.1-1.1,0.2c-0.7,0.1-1.5,0.2-2.2,0.1c-0.7,0-1.4-0.2-2.1-0.4l0.7-2.5c0.9,0.2,1.8,0.3,2.6,0.3
		c0.8,0,1.6-0.2,2.2-0.5c1-0.4,1.7-0.9,2.1-1.5c0.4-0.5,0.4-1.1,0.1-1.7c-0.2-0.4-0.5-0.7-0.8-0.8c-0.4-0.1-0.8-0.1-1.2,0
		c-0.4,0.1-1,0.3-1.8,0.6c-0.1,0-0.1,0.1-0.2,0.1c-0.1,0-0.2,0.1-0.2,0.1c0,0-0.1,0-0.1,0c0,0-0.1,0-0.1,0c-0.9,0.3-1.6,0.5-2.3,0.6
		c-0.7,0.1-1.3,0-1.9-0.4c-0.6-0.3-1.1-0.9-1.5-1.9c-0.4-0.9-0.5-1.8-0.4-2.5c0.1-0.8,0.5-1.5,1.1-2.1s1.5-1.2,2.6-1.7
		c0.7-0.3,1.3-0.5,2-0.7c0.7-0.1,1.3-0.2,2-0.2c0.7,0,1.3,0.1,2,0.2l-0.7,2.5c-0.8-0.1-1.6-0.2-2.3-0.1c-0.7,0.1-1.4,0.2-2,0.5
		c-0.9,0.4-1.5,0.8-1.8,1.3c-0.3,0.5-0.3,1-0.1,1.6c0.2,0.4,0.4,0.6,0.7,0.6s0.7,0,1.1-0.1c0.4-0.1,1-0.3,1.7-0.6
		c0.1,0,0.1,0,0.2-0.1c0.1,0,0.1,0,0.2-0.1c0,0,0,0,0.1,0c0,0,0.1,0,0.1,0c0.9-0.3,1.8-0.6,2.5-0.7c0.7-0.1,1.4,0,2.1,0.4
		c0.7,0.4,1.2,1,1.7,2.1c0.4,0.9,0.5,1.8,0.4,2.6c-0.1,0.8-0.5,1.5-1.2,2.2c-0.7,0.7-1.6,1.3-2.8,1.8
		C1081.6,265.1,1081.2,265.3,1081.2,265.3z"/>
	<path d="M1094.5,259.4c0,0-0.4,0.1-1.1,0.2c-0.7,0.1-1.5,0.2-2.2,0.1c-0.7,0-1.4-0.2-2.1-0.4l0.7-2.5c0.9,0.2,1.8,0.3,2.6,0.3
		c0.8,0,1.6-0.2,2.2-0.5c1-0.4,1.7-0.9,2.1-1.5c0.4-0.5,0.4-1.1,0.1-1.7c-0.2-0.4-0.5-0.7-0.8-0.8s-0.8-0.1-1.2,0
		c-0.4,0.1-1,0.3-1.8,0.6c-0.1,0-0.1,0.1-0.2,0.1c-0.1,0-0.2,0.1-0.2,0.1c0,0-0.1,0-0.1,0c0,0-0.1,0-0.1,0c-0.9,0.3-1.6,0.5-2.3,0.6
		c-0.7,0.1-1.3,0-1.9-0.4c-0.6-0.3-1.1-0.9-1.5-1.9c-0.4-0.9-0.5-1.8-0.4-2.5c0.1-0.8,0.5-1.5,1.1-2.1c0.6-0.6,1.5-1.2,2.6-1.7
		c0.7-0.3,1.3-0.5,2-0.7c0.7-0.1,1.3-0.2,2-0.2c0.7,0,1.3,0.1,2,0.2l-0.7,2.5c-0.8-0.1-1.6-0.2-2.3-0.1c-0.7,0.1-1.4,0.2-2,0.5
		c-0.9,0.4-1.5,0.8-1.8,1.3c-0.3,0.5-0.3,1-0.1,1.6c0.2,0.4,0.4,0.6,0.7,0.6c0.3,0.1,0.7,0,1.1-0.1s1-0.3,1.7-0.6
		c0.1,0,0.1,0,0.2-0.1c0.1,0,0.1,0,0.2-0.1c0,0,0,0,0.1,0c0,0,0.1,0,0.1,0c0.9-0.3,1.8-0.6,2.5-0.7c0.7-0.1,1.4,0,2.1,0.4
		c0.7,0.4,1.2,1,1.7,2.1c0.4,0.9,0.5,1.8,0.4,2.6c-0.1,0.8-0.5,1.5-1.2,2.2c-0.7,0.7-1.6,1.3-2.8,1.8
		C1094.9,259.3,1094.5,259.4,1094.5,259.4z"/>
	<path d="M1107.9,253.6c0,0-0.5,0-1.6-0.1c-1-0.1-2-0.5-2.8-1.1c-0.8-0.7-1.5-1.6-2.1-2.9l-0.6-1.5c-0.6-1.3-0.8-2.5-0.8-3.6
		c0-1.1,0.4-2.1,1-2.9c0.6-0.8,1.5-1.5,2.6-2c1.1-0.5,2.1-0.6,3.1-0.4c1,0.2,1.9,0.7,2.8,1.6s1.6,2,2.2,3.4l0.4,0.9l-8.8,3.8
		l-0.9-2.1l6.3-2.8c-0.5-1-1.2-1.7-1.9-2.1c-0.7-0.4-1.5-0.4-2.3-0.1c-1,0.4-1.6,1.1-1.8,1.9c-0.3,0.9-0.1,1.9,0.4,3l0.7,1.7
		c0.5,1.1,1.1,1.8,1.9,2.1c0.8,0.3,1.8,0.3,2.8-0.2c0.5-0.2,1-0.6,1.4-1c0.4-0.4,0.7-0.9,1-1.5l2.4,0.9c-0.4,0.9-0.9,1.7-1.5,2.4
		c-0.7,0.7-1.4,1.2-2.2,1.6C1108.5,253.3,1107.9,253.6,1107.9,253.6z"/>
	<path d="M1118.7,247.6c-0.7-0.4-1.4-1.1-1.9-2.3L1111,232l2.6-1.1l5.9,13.4c0.1,0.3,0.3,0.5,0.5,0.6c0.2,0.1,0.4,0.1,0.7,0l1.2-0.5
		l1.1,2.4l-1.5,0.6C1120.4,247.9,1119.5,248,1118.7,247.6z M1111.3,236.3l5.9-2.6l1,2.3l-5.9,2.6L1111.3,236.3z"/>
</g>
<g>
	<g>
		<line fill="none" stroke="#666666" stroke-width="4" stroke-miterlimit="10" x1="1254.5" y1="268.5" x2="984.1" y2="388.4"/>
		<g>
			<g>
				<polygon fill="#666666" points="993.2,360.3 986.5,387.3 1011,400.5 954.5,401.5 				"/>
				<polygon fill="#A3A3A3" points="989.7,366.7 959.5,399.3 983.8,388.5 				"/>
				<polygon fill="#C9C9C9" points="1003.9,398.8 959.5,399.3 983.8,388.5 				"/>
			</g>
		</g>
	</g>
</g>
<g>
	<path d="M1075.1,381.5c0,0-0.4,0.1-1.1,0.2s-1.5,0.2-2.2,0.1c-0.7,0-1.4-0.2-2.1-0.4l0.7-2.5c0.9,0.2,1.8,0.3,2.6,0.3
		c0.8,0,1.6-0.2,2.2-0.5c1-0.4,1.7-0.9,2.1-1.5c0.4-0.5,0.4-1.1,0.1-1.7c-0.2-0.4-0.5-0.7-0.8-0.8c-0.4-0.1-0.8-0.1-1.2,0
		c-0.4,0.1-1,0.3-1.8,0.6c-0.1,0-0.1,0.1-0.2,0.1c-0.1,0-0.2,0.1-0.2,0.1c0,0-0.1,0-0.1,0c0,0-0.1,0-0.1,0c-0.9,0.3-1.6,0.5-2.3,0.6
		c-0.7,0.1-1.3,0-1.9-0.4s-1.1-0.9-1.5-1.9c-0.4-0.9-0.5-1.8-0.4-2.5c0.1-0.8,0.5-1.5,1.1-2.1c0.6-0.6,1.5-1.2,2.6-1.7
		c0.7-0.3,1.4-0.5,2-0.7c0.7-0.1,1.3-0.2,2-0.2c0.7,0,1.3,0.1,2,0.2l-0.7,2.5c-0.8-0.1-1.6-0.2-2.3-0.1c-0.7,0.1-1.4,0.2-2,0.5
		c-0.9,0.4-1.5,0.8-1.8,1.3c-0.3,0.5-0.3,1-0.1,1.6c0.2,0.4,0.4,0.6,0.7,0.6c0.3,0.1,0.7,0.1,1.1-0.1s1-0.3,1.7-0.5
		c0.1,0,0.1,0,0.2-0.1c0.1,0,0.1,0,0.2-0.1c0,0,0.1,0,0.1,0c0,0,0.1,0,0.1,0c0.9-0.3,1.8-0.6,2.5-0.6c0.7-0.1,1.4,0,2.1,0.4
		s1.2,1,1.7,2.1c0.4,0.9,0.5,1.8,0.4,2.6c-0.1,0.8-0.5,1.5-1.2,2.2c-0.7,0.7-1.6,1.3-2.8,1.8
		C1075.5,381.4,1075.1,381.5,1075.1,381.5z"/>
	<path d="M1088.5,375.7c0,0-0.5,0-1.6-0.1s-2-0.5-2.8-1.1c-0.8-0.7-1.5-1.6-2-2.9l-0.6-1.5c-0.6-1.3-0.8-2.5-0.8-3.6
		c0-1.1,0.4-2.1,1-2.9c0.6-0.8,1.5-1.5,2.6-2c1.1-0.5,2.1-0.6,3.1-0.4c1,0.2,1.9,0.7,2.8,1.6c0.9,0.9,1.6,2,2.2,3.4l0.4,0.9
		l-8.8,3.8l-0.9-2.1l6.3-2.8c-0.5-1-1.2-1.7-1.9-2.1c-0.7-0.4-1.5-0.4-2.3-0.1c-1,0.4-1.6,1.1-1.8,1.9c-0.3,0.9-0.1,1.9,0.4,3
		l0.7,1.7c0.5,1.1,1.1,1.8,1.9,2.1c0.8,0.3,1.8,0.3,2.8-0.2c0.5-0.2,1-0.6,1.4-1c0.4-0.4,0.7-0.9,1-1.5l2.4,0.9
		c-0.4,0.9-0.9,1.7-1.5,2.4c-0.7,0.7-1.4,1.2-2.2,1.6C1089.1,375.4,1088.5,375.7,1088.5,375.7z"/>
	<path d="M1093,358.1l2.6-1.1l5.7,13l-2.6,1.1L1093,358.1z M1100.4,357.8c-0.4,0-0.8,0.1-1.3,0.3c-0.8,0.4-1.3,0.9-1.6,1.5
		c-0.3,0.6-0.2,1.4,0.1,2.2l-1.4-2.4c0.1-1,0.3-1.8,0.8-2.5c0.4-0.7,1.1-1.2,1.8-1.6c0.6-0.3,1.2-0.4,1.7-0.4c0.6,0,1.1,0,1.6,0.2
		l-0.7,3C1101.2,357.8,1100.8,357.8,1100.4,357.8z"/>
	<path d="M1111.7,350l2.7-1.2l0.8,15.1l-1.9,0.8l-10.6-10.9l2.7-1.2l7.2,7.9L1111.7,350z"/>
	<path d="M1125.8,359.5c0,0-0.5,0-1.6-0.1c-1-0.1-2-0.5-2.8-1.1c-0.8-0.7-1.5-1.6-2-2.9l-0.6-1.5c-0.6-1.3-0.8-2.5-0.8-3.6
		c0-1.1,0.4-2.1,1-2.9c0.6-0.8,1.5-1.5,2.6-2c1.1-0.5,2.1-0.6,3.1-0.4c1,0.2,1.9,0.7,2.8,1.6c0.9,0.9,1.6,2,2.2,3.4l0.4,0.9
		l-8.8,3.8l-0.9-2.1l6.3-2.8c-0.5-1-1.2-1.7-1.9-2.1s-1.5-0.4-2.3-0.1c-1,0.4-1.6,1.1-1.8,1.9c-0.3,0.9-0.1,1.9,0.4,3l0.7,1.7
		c0.5,1.1,1.1,1.8,1.9,2.1c0.8,0.3,1.8,0.3,2.8-0.2c0.5-0.2,1-0.6,1.4-1c0.4-0.4,0.7-0.9,1-1.5l2.4,0.9c-0.4,0.9-0.9,1.7-1.5,2.4
		c-0.7,0.7-1.4,1.2-2.2,1.6C1126.5,359.2,1125.8,359.5,1125.8,359.5z"/>
	<path d="M1144.2,341.5c-0.4-0.9-0.9-1.4-1.5-1.7c-0.7-0.3-1.4-0.2-2.2,0.1c-0.5,0.2-1,0.5-1.4,0.9s-0.8,0.8-1,1.2l-2.4-0.5
		c0.2-0.8,0.7-1.6,1.3-2.2c0.7-0.7,1.5-1.2,2.5-1.7c1.1-0.5,2.1-0.7,3-0.6c0.9,0,1.8,0.3,2.5,0.9c0.7,0.5,1.3,1.3,1.7,2.4l3.6,8.4
		l-2.4,1.1L1144.2,341.5z M1140.6,351.9c-1.1-0.3-1.9-1.2-2.5-2.5c-0.6-1.3-0.6-2.4-0.2-3.4s1.4-1.8,2.9-2.4l3.7-1.6l1.1,2l-3.9,1.7
		c-0.7,0.3-1.1,0.7-1.3,1.1c-0.2,0.4-0.2,1,0.1,1.6c0.3,0.7,0.7,1.1,1.3,1.2c0.6,0.1,1.3,0,2.2-0.4c1-0.4,1.7-0.8,2.1-1.3
		s0.5-0.8,0.3-1.3l1.1,1.7c-0.1,0.4-0.2,0.9-0.5,1.2c-0.2,0.4-0.5,0.7-0.9,1c-0.4,0.3-0.8,0.6-1.4,0.8
		C1143,352,1141.7,352.2,1140.6,351.9z"/>
	<path d="M1157.6,345.7c0,0-0.4,0.1-1.1,0.2c-0.7,0.1-1.5,0.2-2.2,0.1c-0.7,0-1.4-0.2-2.1-0.4l0.7-2.5c0.9,0.2,1.8,0.3,2.6,0.3
		c0.8,0,1.6-0.2,2.2-0.5c1-0.4,1.7-0.9,2.1-1.5c0.4-0.5,0.4-1.1,0.1-1.7c-0.2-0.4-0.5-0.7-0.8-0.8c-0.4-0.1-0.8-0.1-1.2,0
		c-0.4,0.1-1,0.3-1.8,0.6c-0.1,0-0.1,0.1-0.2,0.1c-0.1,0-0.2,0.1-0.2,0.1c0,0-0.1,0-0.1,0c0,0-0.1,0-0.1,0c-0.9,0.3-1.6,0.5-2.3,0.6
		s-1.3,0-1.9-0.4c-0.6-0.3-1.1-0.9-1.5-1.9c-0.4-0.9-0.5-1.8-0.4-2.5c0.1-0.8,0.5-1.5,1.1-2.1s1.5-1.2,2.6-1.7
		c0.7-0.3,1.3-0.5,2-0.7c0.7-0.1,1.3-0.2,2-0.2c0.7,0,1.3,0.1,2,0.2l-0.7,2.5c-0.8-0.1-1.6-0.2-2.3-0.1c-0.7,0.1-1.4,0.2-2,0.5
		c-0.9,0.4-1.5,0.8-1.8,1.3c-0.3,0.5-0.3,1-0.1,1.6c0.2,0.4,0.4,0.6,0.7,0.6c0.3,0.1,0.7,0,1.1-0.1c0.4-0.1,1-0.3,1.7-0.5
		c0.1,0,0.1,0,0.2-0.1c0.1,0,0.1,0,0.2-0.1c0,0,0,0,0.1,0c0,0,0.1,0,0.1,0c0.9-0.3,1.8-0.6,2.5-0.6c0.7-0.1,1.4,0,2.1,0.4
		s1.2,1,1.7,2.1c0.4,0.9,0.5,1.8,0.4,2.6c-0.1,0.8-0.5,1.5-1.2,2.2c-0.7,0.7-1.6,1.3-2.8,1.8C1158,345.5,1157.6,345.7,1157.6,345.7z
		"/>
	<path d="M1170.9,339.9c0,0-0.4,0.1-1.1,0.2c-0.7,0.1-1.5,0.2-2.2,0.1c-0.7,0-1.4-0.2-2.1-0.4l0.7-2.5c0.9,0.2,1.8,0.3,2.6,0.3
		c0.8,0,1.6-0.2,2.2-0.5c1-0.4,1.7-0.9,2.1-1.5c0.4-0.5,0.4-1.1,0.1-1.7c-0.2-0.4-0.5-0.7-0.8-0.8c-0.4-0.1-0.8-0.1-1.2,0
		c-0.4,0.1-1,0.3-1.8,0.6c-0.1,0-0.1,0.1-0.2,0.1c-0.1,0-0.2,0.1-0.2,0.1c0,0-0.1,0-0.1,0c0,0-0.1,0-0.1,0c-0.9,0.3-1.6,0.5-2.3,0.6
		c-0.7,0.1-1.3,0-1.9-0.4c-0.6-0.3-1.1-0.9-1.5-1.9c-0.4-0.9-0.5-1.8-0.4-2.5c0.1-0.8,0.5-1.5,1.1-2.1s1.5-1.2,2.6-1.7
		c0.7-0.3,1.4-0.5,2-0.7c0.7-0.1,1.3-0.2,2-0.2c0.7,0,1.3,0.1,2,0.2l-0.7,2.5c-0.8-0.1-1.6-0.2-2.3-0.1c-0.7,0.1-1.4,0.2-2,0.5
		c-0.9,0.4-1.5,0.8-1.8,1.3c-0.3,0.5-0.3,1-0.1,1.6c0.2,0.4,0.4,0.6,0.7,0.6c0.3,0.1,0.7,0.1,1.1-0.1c0.4-0.1,1-0.3,1.7-0.5
		c0.1,0,0.1,0,0.2-0.1c0.1,0,0.1,0,0.2-0.1c0,0,0,0,0.1,0c0,0,0.1,0,0.1,0c0.9-0.3,1.8-0.6,2.5-0.6c0.7-0.1,1.4,0,2.1,0.4
		c0.7,0.4,1.2,1,1.7,2.1c0.4,0.9,0.5,1.8,0.4,2.6c-0.1,0.8-0.5,1.5-1.2,2.2c-0.7,0.7-1.6,1.3-2.8,1.8
		C1171.3,339.7,1170.9,339.9,1170.9,339.9z"/>
	<path d="M1184.3,334.1c0,0-0.5,0-1.6-0.1s-2-0.5-2.8-1.1c-0.8-0.7-1.5-1.6-2-2.9l-0.6-1.5c-0.6-1.3-0.8-2.5-0.8-3.6s0.4-2.1,1-2.9
		c0.6-0.8,1.5-1.5,2.6-2c1.1-0.5,2.1-0.6,3.1-0.4c1,0.2,1.9,0.7,2.8,1.6s1.6,2,2.2,3.4l0.4,0.9l-8.8,3.8l-0.9-2.1l6.3-2.8
		c-0.5-1-1.2-1.7-1.9-2.1c-0.7-0.4-1.5-0.4-2.3-0.1c-1,0.4-1.6,1.1-1.8,1.9c-0.3,0.9-0.1,1.9,0.4,3l0.7,1.7c0.5,1.1,1.1,1.8,1.9,2.1
		c0.8,0.3,1.8,0.3,2.8-0.2c0.5-0.2,1-0.6,1.4-1c0.4-0.4,0.7-0.9,1-1.5l2.4,0.9c-0.4,0.9-0.9,1.7-1.5,2.4s-1.4,1.2-2.2,1.6
		C1184.9,333.8,1184.3,334.1,1184.3,334.1z"/>
	<path d="M1195.2,328.1c-0.7-0.4-1.4-1.1-1.9-2.3l-5.8-13.4l2.6-1.1l5.8,13.4c0.1,0.3,0.3,0.5,0.5,0.7c0.2,0.1,0.4,0.1,0.7,0
		l1.2-0.5l1.1,2.4l-1.5,0.6C1196.8,328.5,1195.9,328.5,1195.2,328.1z M1187.8,316.8l5.9-2.6l1,2.3l-5.9,2.6L1187.8,316.8z"/>
</g>
<g>
</g>
<g>
</g>
<g>
</g>
<g>
</g>
<g>
</g>
<g>
</g>
<g>
</g>
<g>
</g>
<g>
</g>
<g>
</g>
<g>
</g>
<g>
</g>
<g>
</g>
<g>
</g>
<g>
</g>
<g>
</g>
</svg>
